<?xml version="1.0" encoding="UTF-8" standalone="no"?>
<!-- Created with Inkscape (http://www.inkscape.org/) -->
<svg
   xmlns:dc="http://purl.org/dc/elements/1.1/"
   xmlns:cc="http://web.resource.org/cc/"
   xmlns:rdf="http://www.w3.org/1999/02/22-rdf-syntax-ns#"
   xmlns:svg="http://www.w3.org/2000/svg"
   xmlns="http://www.w3.org/2000/svg"
   xmlns:sodipodi="http://sodipodi.sourceforge.net/DTD/sodipodi-0.dtd"
   xmlns:inkscape="http://www.inkscape.org/namespaces/inkscape"
   id="svg2445"
   sodipodi:version="0.32"
   inkscape:version="0.45.1"
   width="524"
   height="272"
   version="1.0"
   sodipodi:docbase="C:\Documents and Settings\Christopher\Desktop\Old Desktop\Stuff\Cetacean Size\SVG"
   sodipodi:docname="Blainville's_beaked_whale_size.svg"
   inkscape:output_extension="org.inkscape.output.svg.inkscape">
  <metadata
     id="metadata2450">
    <rdf:RDF>
      <cc:Work
         rdf:about="">
        <dc:format>image/svg+xml</dc:format>
        <dc:type
           rdf:resource="http://purl.org/dc/dcmitype/StillImage" />
      </cc:Work>
    </rdf:RDF>
  </metadata>
  <defs
     id="defs2448" />
  <sodipodi:namedview
     inkscape:window-height="573"
     inkscape:window-width="744"
     inkscape:pageshadow="2"
     inkscape:pageopacity="0.0"
     guidetolerance="10.0"
     gridtolerance="10.0"
     objecttolerance="10.0"
     borderopacity="1.0"
     bordercolor="#666666"
     pagecolor="#ffffff"
     id="base"
     inkscape:zoom="1.2576336"
     inkscape:cx="262"
     inkscape:cy="136"
     inkscape:window-x="22"
     inkscape:window-y="29"
     inkscape:current-layer="svg2445" />
  <path
     style="fill:#000000"
     d="M 260.5,247.37773 C 222.6915,243.52105 193.03905,237.74904 169,229.56676 C 164.875,228.16271 161.47129,227.01081 161.43619,227.00697 C 161.40109,227.00314 161.5701,229.73349 161.81176,233.07443 C 162.06297,236.54725 161.80763,239.59237 161.2156,240.1844 C 159.57369,241.82631 151.6984,235.86083 140.25961,224.31037 C 130.41909,214.37379 129.59908,213.79101 119.25961,209.38588 C 98.282118,200.4484 78.286021,189.27746 67.301283,180.35905 C 64.901229,178.41047 59.851657,175.88894 55.51379,174.47292 C 47.788728,171.95121 40.837919,168.68906 35.57009,165.11297 C 32.037537,162.71488 26,153.44467 26,150.41878 C 26,145.71704 28.591193,145.35123 46.056743,147.58727 C 49.519211,148.03055 50.929444,147.78994 51.929188,146.58532 C 52.652824,145.7134 53.840978,145 54.56953,145 C 55.298082,145 58.055482,143.83265 60.697085,142.40589 C 65.333978,139.90145 65.84567,139.84096 75.5,140.65589 C 87.020522,141.62835 111.08731,141.57565 145.76151,140.50204 C 186.46853,139.24164 223.3577,143.353 268.32229,154.16164 C 287.41644,158.75152 289.83342,158.73082 300.06821,153.8897 C 307.05253,150.58607 315.2955,149.05107 316.40566,150.84735 C 317.18981,152.11614 314.85086,157.04896 312.56594,158.94528 C 309.44934,161.53183 310.75273,163.75378 317.25,166.9304 C 333.04218,174.65145 375.19104,180.96593 411.09501,180.98968 C 425.17566,180.999 426.85766,180.81477 428.41632,179.09247 C 430.97592,176.26414 438.77525,173.22121 446.90706,171.87827 C 453.99043,170.70848 454.11896,170.72625 455.71131,173.09557 C 460.58809,180.35195 473.70162,190.44227 486.25977,196.60137 C 489.4169,198.14976 492,200.05457 492,200.83428 C 492,203.0498 460.22161,201.80042 449.08182,199.14693 L 440.66364,197.14172 L 436.58182,200.42511 C 408.72279,222.83473 369.18176,239.08907 326.75151,245.57363 C 316.90481,247.07849 270.06946,248.35386 260.5,247.37773 z M 323,243.05052 C 364.53712,237.58292 397.60996,224.8754 429.25,202.22627 C 433.5125,199.17501 437,196.38975 437,196.03681 C 437,195.68386 434.72997,194.5788 431.95548,193.5811 C 429.18099,192.58341 427.09193,191.25702 427.31311,190.63356 C 427.84992,189.12042 429.05873,189.364 438.86438,192.96119 C 449.60218,196.90034 461.76722,199 473.85211,199 L 483.44224,199 L 474.47112,193.14586 C 465.44551,187.25615 459.27437,181.9618 455.19073,176.60479 L 452.98372,173.70959 L 445.90549,174.87853 C 439.23762,175.97971 431.81014,178.88015 430.58603,180.86081 C 430.28371,181.34997 431.87221,182.04376 434.11603,182.40256 C 439.94748,183.33505 445.56043,185.83957 444.40601,186.99399 C 443.80856,187.59144 441.61653,187.35851 438.47896,186.36417 C 434.89506,185.22838 426.49521,184.54803 408.5,183.93599 C 350.32228,181.95731 308,172.53891 308,161.57072 C 308,160.34857 309.125,158.29175 310.5,157 C 311.875,155.70825 313,154.22973 313,153.7144 C 313,152.21113 306.51768,153.84002 299.74001,157.0464 C 290.92542,161.2164 284.48814,161.03389 263.86373,156.02921 C 243.5995,151.11193 216.01259,146.60347 193,144.44811 C 175.60446,142.81885 143.75493,142.87419 107.73108,144.59629 C 99.387326,144.99515 91.416508,144.74488 84.731082,143.87411 C 72.346104,142.26099 66.225944,142.27353 63.152628,143.91832 C 60.876132,145.13666 60.917241,145.20547 65.787119,148.32799 C 71.966293,152.29001 80,159.38271 80,160.87607 C 80,163.11354 77.324566,161.91661 73.452948,157.94708 C 63.695139,147.9425 54.48505,145.15931 52.574738,151.63792 C 52.065844,153.36378 50.421413,155.50128 48.920446,156.38792 C 45.874262,158.18735 38.485128,158.51514 34.5651,157.02475 C 27.030185,154.15998 36.533758,163.45344 45.255294,167.4786 C 54.418557,171.70762 62.871393,173.89846 73.054635,174.68373 C 82.756623,175.4319 83.611197,177.59498 74.097246,177.32278 L 67.90302,177.14555 L 72.20151,180.40359 C 82.091187,187.89945 97.054091,196.39304 112.5,203.27875 C 127.8937,210.14118 127.61516,210.14911 122.83085,202.98456 C 120.27377,199.1553 119.09348,196.50652 119.68202,195.91798 C 120.27055,195.32945 122.83752,198.26076 126.53033,203.73829 C 132.41535,212.46753 152.33683,233.6218 156.89933,235.9866 L 159.29865,237.2302 L 158.74545,231.12939 C 158.04796,223.43734 155.24506,217.61707 149.10541,211.11169 C 145.29279,207.07195 143.62251,206 141.14055,206 C 139.01562,206 138,205.51492 138,204.5 C 138,202.53947 142.20395,202.53699 145.99087,204.49528 C 149.60169,206.36251 157.48124,215.9234 159.10105,220.40292 C 160.26848,223.63136 160.82458,223.92144 173.40784,227.86566 C 210.723,239.56207 244.52182,244.7118 285,244.86831 C 302.82241,244.93722 312.00319,244.49804 323,243.05052 z M 92.25,164.33772 C 90.468266,163.61877 90.701665,160.05171 92.577541,159.33187 C 93.445189,158.99892 94.869033,159.44046 95.741639,160.31307 C 97.049366,161.62079 97.102092,162.17206 96.041653,163.44981 C 94.695585,165.07172 94.299134,165.16456 92.25,164.33772 z M 48.027494,153.25587 L 50.5,151.51174 L 46,150.72015 C 43.525,150.28477 38.6875,149.66721 35.25,149.34778 C 29.921406,148.85263 29,149.00532 29,150.3835 C 29,151.27258 29.1125,152.00678 29.25,152.01506 C 29.3875,152.02334 31.3,152.67859 33.5,153.47116 C 38.991079,155.44939 45.045107,155.35967 48.027494,153.25587 z M 448,153.34353 C 446.625,153.11332 443.8125,152.19851 441.75,151.31061 C 438.34002,149.84263 438,149.34507 438,145.82316 C 438,143.38726 439.29875,139.3711 441.5,135 C 443.425,131.17746 445,126.9304 445,125.56209 C 445,122.67691 439.55076,117.05395 431.16902,111.29016 C 423.50211,106.01793 417.93437,100.19888 415.02536,94.417832 C 413.66431,91.713025 411.9701,89.136388 411.26046,88.691973 C 410.55082,88.247559 408.57805,85.097559 406.87652,81.691973 C 403.10272,74.138741 400.34447,71 397.48067,71 C 396.28679,71 394.52636,70.134112 393.5686,69.075804 C 391.62489,66.928031 379.2927,61.373965 378.41542,62.251245 C 378.10675,62.559912 378.32945,64.533644 378.9103,66.637316 C 380.26479,71.542859 379.52087,72.212882 370.35692,74.341103 C 362.3164,76.208418 342.99799,76.604476 339.93426,74.964816 C 338.59327,74.247138 338,72.866923 338,70.464816 L 338,67 L 342.75,67.015313 C 345.3625,67.023735 348.11377,67.419479 348.86393,67.894745 C 349.67225,68.406851 352.32013,68.201764 355.36393,67.391301 C 358.18877,66.639141 362.1875,66.018397 364.25,66.011869 C 367.96753,66.000103 368,65.964736 368,61.92742 L 368,57.85484 L 365.34242,59.945296 C 360.24432,63.955457 353.15909,65.234895 342.28426,64.109094 C 336.90292,63.551998 330.27579,63.187049 327.55731,63.298096 C 323.14074,63.478509 322.45239,63.214557 321.09048,60.818338 C 319.68796,58.350678 319.72015,57.966709 321.49385,56.006801 C 322.74126,54.628423 324.1409,54.06921 325.46068,54.421895 C 326.58231,54.721629 332.225,55.446384 338,56.032461 C 351.04631,57.356469 355.10403,56.076548 362.26838,48.37753 C 367.31118,42.958383 367.75595,40 363.52787,40 C 362.28589,40 360.19456,39.154282 358.88048,38.120627 C 357.5664,37.086972 355.59322,36.069874 354.49562,35.860411 C 352.34125,35.449272 351.45294,32.315798 352.40988,28.503026 C 353.10427,25.736364 359.80969,22 364.08045,22 C 368.58803,22 372.87711,24.607367 373.56904,27.768189 C 374.78129,33.305965 374.85054,33.338415 378.54105,30.098097 C 380.48175,28.394144 382.94936,27 384.02462,27 C 385.09989,27 391.49673,29.649304 398.23982,32.887342 C 404.98292,36.12538 413.09396,39.948659 416.26435,41.383517 C 420.70782,43.394539 422.42022,44.813359 423.73726,47.575222 C 425.30362,50.859903 425.31461,51.386707 423.86932,53.904969 C 422.34358,56.563424 422.39805,56.766655 425.56147,60.218542 C 427.42078,62.247408 429.49829,66.09515 430.37984,69.14262 C 431.2322,72.089179 432.83775,77.694586 433.94773,81.599081 L 435.96589,88.698162 L 447.23294,90.939623 C 453.42982,92.172427 461.34357,93.61329 464.81904,94.141541 C 475.46242,95.759271 475.49061,95.78343 478.05178,105.4785 C 479.30998,110.24127 482.05745,117.05256 484.19793,120.71547 C 488.34347,127.80955 488.15367,128.95417 482.82673,128.98469 C 481.35642,128.99311 478.81646,130.125 477.18237,131.5 C 471.90129,135.94374 469.55712,134.50554 468.04073,125.89139 C 467.51874,122.92613 466.58249,117.575 465.96017,114 C 464.44152,105.27581 462.27906,103 455.50806,103 C 450.87431,103 439.68097,100.56141 434.5,98.423172 C 431.36087,97.127622 453.10415,115.82154 456.74704,117.5502 C 458.53617,118.3992 460,119.6388 460,120.30487 C 460,120.97095 458.8005,123.76233 457.33444,126.50796 C 454.93281,131.00572 454.66052,132.58916 454.58444,142.5 C 454.49203,154.53795 454.55129,154.44037 448,153.34353 z "
     id="path2454" />
</svg>
