<?xml version="1.0" encoding="UTF-8" standalone="no"?>
<!-- Created with Inkscape (http://www.inkscape.org/) -->
<svg
   xmlns:dc="http://purl.org/dc/elements/1.1/"
   xmlns:cc="http://web.resource.org/cc/"
   xmlns:rdf="http://www.w3.org/1999/02/22-rdf-syntax-ns#"
   xmlns:svg="http://www.w3.org/2000/svg"
   xmlns="http://www.w3.org/2000/svg"
   xmlns:sodipodi="http://sodipodi.sourceforge.net/DTD/sodipodi-0.dtd"
   xmlns:inkscape="http://www.inkscape.org/namespaces/inkscape"
   id="svg2288"
   sodipodi:version="0.32"
   inkscape:version="0.45.1"
   width="950"
   height="350"
   version="1.0"
   sodipodi:docbase="C:\Documents and Settings\Christopher\Desktop\Old Desktop\Stuff\Cetacean Size\New\SVG 2"
   sodipodi:docname="Burmeister's porpoise size.svg"
   inkscape:output_extension="org.inkscape.output.svg.inkscape">
  <metadata
     id="metadata2293">
    <rdf:RDF>
      <cc:Work
         rdf:about="">
        <dc:format>image/svg+xml</dc:format>
        <dc:type
           rdf:resource="http://purl.org/dc/dcmitype/StillImage" />
      </cc:Work>
    </rdf:RDF>
  </metadata>
  <defs
     id="defs2291" />
  <sodipodi:namedview
     inkscape:window-height="573"
     inkscape:window-width="744"
     inkscape:pageshadow="2"
     inkscape:pageopacity="0.0"
     guidetolerance="10.0"
     gridtolerance="10.0"
     objecttolerance="10.0"
     borderopacity="1.0"
     bordercolor="#666666"
     pagecolor="#ffffff"
     id="base"
     inkscape:zoom="0.69368421"
     inkscape:cx="475"
     inkscape:cy="175"
     inkscape:window-x="22"
     inkscape:window-y="29"
     inkscape:current-layer="svg2288" />
  <path
     style="fill:#000000"
     d="M 828.5,330.53634 C 817.74906,328.56559 813.09049,326.88695 809.77374,323.78864 L 806.73501,320.95004 L 807.26896,311.22502 C 807.82618,301.07633 809.23289,296.10617 816.38966,279 C 821.34442,267.15709 822.64481,260.97093 821.00948,257.02287 C 818.787,251.65735 807.83855,242.81548 791.33405,233.05726 C 782.62532,227.90827 774.825,223.12332 774,222.42405 C 773.175,221.72478 769.95938,220.20351 766.85418,219.04346 C 759.52813,216.30655 750.17004,210.21811 743.26578,203.69668 C 737.6692,198.41042 724.27185,181.36016 721.49436,175.98909 C 720.65384,174.36371 718.70432,172.38134 717.16209,171.58382 C 712.56914,169.20871 707.16514,163.1058 700.26376,152.5 C 692.54782,140.64239 686.03517,132.76242 680.84169,129.00028 C 677.43528,126.53269 676.68079,126.36306 673.22009,127.28678 C 668.01258,128.67674 664.3636,127.56466 660.09106,123.28549 C 656.91897,120.10849 654.57492,119.13106 640,114.90786 C 630.925,112.2783 621.82695,109.42331 619.78212,108.56342 C 615.01945,106.56065 615.30574,106.46472 614.7489,110.25 C 614.4003,112.61973 615.33138,115.81595 618.18648,122.05057 C 623.72634,134.14784 623.52721,134.49061 607.84476,139.85217 C 580.32876,149.25942 576.70333,150.0993 559.5,151.05179 C 539.69107,152.14855 533.19627,152.87341 532.45675,154.06999 C 531.66818,155.34591 519.77757,155.24528 516.3151,153.93339 C 510.27476,151.64477 509,149.3776 509,140.92351 L 509,133.19565 L 512.14922,132.09783 C 518.55379,129.86518 535.46665,131.4475 538.01471,134.51772 C 538.97168,135.6708 541.04296,135.2365 550.61118,131.87651 C 563.64415,127.29984 572.68011,124.71333 581.86499,122.93021 L 588.22998,121.69454 L 587.61499,117.2077 C 587.27675,114.73994 587,109.77577 587,106.17622 L 587,99.631579 L 582.25,104.45284 C 576.96846,109.81363 563.18415,117.00273 549.5,121.53336 L 541.5,124.18204 L 513.3284,123.51027 C 486.09057,122.86076 485.12232,122.90292 484.11662,124.7821 C 482.49633,127.80964 477.6132,129.34309 471.5766,128.72006 C 461.67411,127.69803 456.01141,122.57538 456.00374,114.63235 C 456.00066,111.45103 456.70967,110.05504 459.99919,106.76551 C 463.11215,103.65256 464.49718,102.90742 466.24919,103.40304 C 469.31971,104.27165 525.51844,106.09178 527.73034,105.39426 C 528.70365,105.08732 535.65472,102.28555 543.17715,99.168096 C 554.03012,94.670396 557.2042,92.909378 558.54885,90.639685 C 559.48085,89.066511 564.59855,82.316511 569.92151,75.639685 L 579.59962,63.5 L 577.04981,59.370557 C 574.54805,55.318932 574.37563,55.232139 567.90042,54.76484 C 561.18717,54.280362 551.36172,50.10619 550.27625,47.277524 C 549.95819,46.448656 547.79459,46 544.11552,46 C 535.25859,46 534,44.620314 534,34.911177 C 534,23.265389 537.41262,17 543.75584,17 C 545.05679,17 547.57342,15.493245 549.51445,13.552218 C 553.54947,9.517192 558.17346,8.013292 566.5685,8.0055769 C 574.43845,7.9983445 582.18378,10.344449 586.34142,13.994908 C 589.39981,16.680207 592,22.383507 592,26.406512 C 592,28.614267 596.02233,34 597.67119,34 C 598.38348,34 601.26244,31.078164 604.06889,27.50703 C 615.90026,12.451886 619.91375,12.430408 657,27.223781 C 676.71363,35.087372 685.5339,38.043648 699.79018,41.565711 C 714.47429,45.193468 724.20295,49.286531 730.59911,54.527705 C 739.79883,62.06618 741.67976,74.362046 734.76278,81.746057 C 733.60558,82.981388 732.84805,84.140743 733.07939,84.322401 C 733.31073,84.504058 735.16932,85.656298 737.2096,86.882932 C 746.91247,92.716392 756.18314,102.82015 760.25567,112 C 761.35368,114.475 764.17523,121.675 766.52579,128 C 768.87636,134.325 773.30046,145.35 776.35713,152.5 L 781.91472,165.5 L 803.87887,167.17431 C 815.95915,168.09519 830.49084,169.60015 836.17151,170.51868 C 841.85218,171.4372 855.05,172.5444 865.5,172.97911 C 890.09521,174.00224 893.79224,175.26492 897.71037,183.98022 C 899.07521,187.0161 902.17043,194.57397 904.58863,200.77549 C 907.00683,206.97701 909.94863,213.95201 911.12597,216.27549 C 914.30569,222.5507 923.99458,236.43739 931.44214,245.39385 C 938.861,254.31577 938.83298,255.22671 931.0887,256.88756 C 920.53727,259.15043 915.25699,261.90377 908.69257,268.56575 C 902.99967,274.34326 901.94538,275 898.36336,275 C 895.30194,275 893.7758,274.36044 891.80125,272.25 C 887.79796,267.9712 886.28262,264.2078 881.94849,247.78025 C 879.7312,239.37611 876.06134,226.875 873.79325,220 C 869.98334,208.45146 869.28241,207.12665 864.58472,202.59506 L 859.5,197.69012 L 841,197.45964 C 815.35423,197.14013 792.7413,194.28766 778.60298,189.58868 C 774.69634,188.29027 772.32016,187.73915 773.32258,188.36397 C 779.33967,192.11447 820.70876,219.79347 827,224.27816 C 833.38299,228.82825 851.4147,238.36532 853.83487,238.47126 C 857.2569,238.62107 859.25483,241.7786 858.59866,246 C 858.29945,247.925 855.98837,253.69574 853.46294,258.82386 C 846.86475,272.22211 846.73649,275.86055 851.90461,303.03002 C 856.34161,326.35595 856.61566,328.98434 854.8,330.8 C 853.21834,332.38166 837.71909,332.22628 828.5,330.53634 z M 165.49342,251.05192 C 152.05778,247.52751 138.64378,240.95438 127.44967,232.40972 C 122.22867,228.42444 124.0074,228.8 90,224.50256 C 55.499731,220.14283 37.011527,216.03755 27.37999,210.59788 C 23.606058,208.46645 23.500972,208.25749 23.535561,202.95328 C 23.609794,191.56973 32.931968,178.84055 47.5,170.23048 C 70.944132,156.37441 132.94923,138.75167 180,132.57206 C 215.79419,127.87088 259.51719,126.36633 303,128.3395 C 320.51039,129.13408 322.28708,129.04047 336.214,126.5895 C 353.75072,123.50323 373.1764,123.00562 378.03517,125.51819 C 382.39187,127.77113 382.90142,131.4311 379.66531,137.22724 C 378.19939,139.85283 377,142.60829 377,143.35048 C 377,148.25019 391.68056,160.93631 406.00342,168.41363 C 415.97068,173.61708 426.74352,180.87141 436.44638,188.91363 L 444.39277,195.5 L 458.44638,195.54479 C 471.0207,195.58487 473.26783,195.86542 479.79453,198.21007 C 487.19735,200.86946 494.44588,205.46954 493.5409,206.93383 C 493.26778,207.37574 491.31331,208.0141 489.19762,208.35241 C 486.54883,208.77597 484.35447,210.06253 482.1512,212.48376 C 480.39137,214.41769 478.50204,216 477.9527,216 C 477.40336,216 477.62704,217.02736 478.44978,218.28302 C 479.27252,219.53868 480.40917,223.83409 480.97566,227.82839 C 482.03614,235.30571 484.36637,241.01749 488.72963,246.83459 C 491.77648,250.89666 490.71888,252.54505 485.67315,251.59846 C 478.14905,250.18693 464.77126,241.17349 450.80618,228.10644 L 443.11237,220.90738 L 424.30618,220.6313 C 406.24926,220.36622 404.58366,220.16437 382.5,215.56497 L 359.5,210.77472 L 344,211.34837 C 328.37249,211.92675 313.51861,214.11812 269,222.41304 C 251.73619,225.62972 221.13324,230.06241 205.8518,231.55977 L 199.20359,232.21119 L 201.6018,235.74514 C 204.43247,239.91638 204.48843,240.36871 202.42857,242.42857 C 201.43275,243.4244 199.08365,244 196.01544,244 L 191.17373,244 L 192.3366,247.0808 C 193.35081,249.76775 193.25135,250.34304 191.55861,251.5808 C 188.75925,253.62775 174.18559,253.33204 165.49342,251.05192 z M 189.33696,249.05493 C 190.22307,248.16265 188.47608,245.98204 182,239.89687 C 166.40241,225.24078 156.30933,218.78903 140.81836,213.57251 C 133.67482,211.16695 130.85319,209 134.8644,209 C 141.65991,209 162.59355,219.1895 172.28264,227.21341 L 177.06528,231.1741 L 185.78264,230.52325 C 210.65867,228.66596 246.84969,223.89586 270.5,219.3572 C 316.84923,210.46247 329.56086,208.7321 349.5,208.60333 C 363.77894,208.51112 366.68323,208.79351 376.5,211.22866 C 398.62009,216.71578 422.2028,219.75315 432.97693,218.50268 L 439.01147,217.80229 L 436.15043,214.15115 C 432.01685,208.87604 430.64305,205.95695 431.76569,204.83431 C 432.36698,204.23302 433.86818,205.67785 435.84829,208.76359 C 439.2768,214.10646 457.42844,230.979 468.5,239.11442 C 475.22528,244.05618 484.98062,249.35271 485.81693,248.51641 C 486.03762,248.29572 485.32057,246.85174 484.22348,245.30758 C 480.98053,240.74306 478.94334,234.94444 478.02743,227.67128 C 477.12644,220.51662 475.08909,217 471.84501,217 C 470.83026,217 470,216.325 470,215.5 C 470,214.45485 471.05223,214 473.47006,214 C 476.16728,214 477.43485,213.33085 479.16143,210.99553 C 480.38314,209.34307 482.87161,207.45267 484.69136,206.79464 C 486.51111,206.13661 488,205.27095 488,204.87096 C 488,203.84918 477.53759,200.05018 471.64714,198.93308 C 465.7027,197.80574 450.98096,197.72509 449.27237,198.8105 C 448.40172,199.3636 449.48477,201.32193 452.99698,205.54519 C 458.19343,211.79366 458.80407,213.00527 456.75,212.99181 C 456.0625,212.98731 453.38728,210.33394 450.80506,207.09542 C 441.99702,196.04874 425.32751,182.64811 409,173.48831 C 396.93731,166.7211 383.57538,157.41935 379.89407,153.22657 C 378.16472,151.25695 376.09926,148.08847 375.30414,146.18548 C 373.94916,142.94256 374.01974,142.41466 376.42923,137.77047 C 379.50208,131.8477 379.66055,129.42388 377.06574,128.03518 C 373.45369,126.10207 350.41015,126.8088 337.96456,129.23439 C 328.07815,131.1612 324.15987,131.41033 309.5,131.04419 C 300.15,130.81066 276.3,130.64222 256.5,130.66987 C 219.81136,130.7211 201.35178,132.01206 172,136.57931 C 127.73305,143.46743 78.020118,157.6908 52.545245,170.75653 C 40.627187,176.86915 31.280908,185.91598 28.11491,194.40415 C 26.903707,197.65143 26.044861,200.83733 26.206362,201.48392 C 26.622014,203.14806 38.609661,200.98975 51.673925,196.89864 C 61.095356,193.94829 64.870468,193.60488 62.433333,195.9199 C 60.234779,198.0083 33.753467,205 28.042158,205 C 24.530161,205 25.793751,206.6688 31.25,209.23653 C 37.961098,212.39481 41.405569,213.47492 52.658233,215.94969 C 60.430145,217.65894 112.52099,224.98496 116.98282,224.99625 C 117.79838,224.99831 116.11088,222.9401 113.23282,220.42245 C 108.72388,216.47814 106.56061,213 108.61634,213 C 108.95533,213 111.8445,215.41808 115.03672,218.37351 C 133.84614,235.78771 154.84802,247.00785 174.31499,250.04258 C 180.80028,251.05358 187.80981,250.59273 189.33696,249.05493 z M 74,186 C 74,184.66667 74.666667,184 76,184 C 77.333333,184 78,184.66667 78,186 C 78,187.33333 77.333333,188 76,188 C 74.666667,188 74,187.33333 74,186 z M 196.36043,241.36408 C 198.91219,241.01432 201,240.29486 201,239.76529 C 201,239.23571 199.60241,237.49688 197.89424,235.90121 C 195.10413,233.29485 194.10476,233 188.06091,233 C 184.36074,233 181.00227,233.33106 180.59764,233.7357 C 179.64188,234.69146 188.00548,241.93115 190.11043,241.97016 C 190.99616,241.98657 193.80866,241.71383 196.36043,241.36408 z "
     id="path2297" />
</svg>
