<?xml version="1.0" encoding="UTF-8" standalone="no"?>
<!-- Created with Inkscape (http://www.inkscape.org/) -->
<svg
   xmlns:dc="http://purl.org/dc/elements/1.1/"
   xmlns:cc="http://web.resource.org/cc/"
   xmlns:rdf="http://www.w3.org/1999/02/22-rdf-syntax-ns#"
   xmlns:svg="http://www.w3.org/2000/svg"
   xmlns="http://www.w3.org/2000/svg"
   xmlns:sodipodi="http://sodipodi.sourceforge.net/DTD/sodipodi-0.dtd"
   xmlns:inkscape="http://www.inkscape.org/namespaces/inkscape"
   id="svg2997"
   sodipodi:version="0.32"
   inkscape:version="0.45.1"
   width="471"
   height="228"
   version="1.0"
   sodipodi:docbase="C:\Documents and Settings\Christopher\Desktop\Old Desktop\Stuff\Cetacean Size\SVG"
   sodipodi:docname="Gray's_beaked_whale_size.svg"
   inkscape:output_extension="org.inkscape.output.svg.inkscape">
  <metadata
     id="metadata3002">
    <rdf:RDF>
      <cc:Work
         rdf:about="">
        <dc:format>image/svg+xml</dc:format>
        <dc:type
           rdf:resource="http://purl.org/dc/dcmitype/StillImage" />
      </cc:Work>
    </rdf:RDF>
  </metadata>
  <defs
     id="defs3000" />
  <sodipodi:namedview
     inkscape:window-height="573"
     inkscape:window-width="744"
     inkscape:pageshadow="2"
     inkscape:pageopacity="0.0"
     guidetolerance="10.0"
     gridtolerance="10.0"
     objecttolerance="10.0"
     borderopacity="1.0"
     bordercolor="#666666"
     pagecolor="#ffffff"
     id="base"
     inkscape:zoom="1.3991507"
     inkscape:cx="235.49999"
     inkscape:cy="114"
     inkscape:window-x="22"
     inkscape:window-y="29"
     inkscape:current-layer="svg2997" />
  <path
     style="fill:#000000"
     d="M 419.5,202.61694 C 408.2087,197.9647 400.38807,193.86376 392.47167,188.44398 L 385.62215,183.75462 L 373.56107,185.0489 C 364.56373,186.01442 342.79992,186.27706 287.88282,186.08285 C 241.10691,185.91743 203.86002,186.27361 185.72629,187.05975 C 155.41705,188.37372 151.29935,188.10571 138.5,183.98596 C 135.2,182.92378 125.26686,180.69363 116.42636,179.03007 C 97.260588,175.42354 78.741502,170.44308 51,161.43449 C 29.234166,154.36641 25.821785,152.97466 22.25,149.70871 C 19.427775,147.12814 19.41566,145.62231 22.196281,143.03176 C 24.850169,140.55929 29.114687,139.26655 38.820503,137.9923 C 47.558735,136.84509 53.579966,134.33877 60.589297,128.93111 C 66.736867,124.18829 73.634517,121.59545 85.671511,119.50266 C 90.52718,118.65844 98.55,116.87869 103.5,115.54768 C 116.68893,112.00127 136.93783,108.23697 149.5,106.9962 C 156.37434,106.31722 180.75324,106.02042 214.5,106.20486 L 268.5,106.5 L 275.22315,103.15844 C 278.92089,101.32059 283.69352,99.582539 285.829,99.296111 C 292.67735,98.377554 295.92425,101.87182 292.4682,106.44113 C 290.73908,108.72722 290.55657,113.30292 292.08088,116.15113 C 294.89654,121.41224 331.93131,142.74683 360.12431,155.34886 L 377.68362,163.19772 L 380.48901,160.59776 C 383.15418,158.12777 390.05226,155.51742 392.10558,156.20186 C 392.63189,156.3773 394.56502,159.97712 396.40141,164.20147 C 398.23781,168.42582 401.79932,174.76754 404.31588,178.29418 C 409.04573,184.92247 419.85557,196.26258 425.67576,200.70186 C 428.6652,202.98202 430.1771,206.0682 428.25,205.95655 C 427.8375,205.93265 423.9,204.42982 419.5,202.61694 z M 412.78726,192.17275 C 404.09057,183.07003 397.95095,174.37391 393.87618,165.3872 C 392.28333,161.87424 390.74511,159 390.45793,159 C 388.76445,159 383.21419,162.04474 381.59501,163.86198 C 380.54727,165.03789 379.07638,166 378.32638,166 C 376.0661,166 350.44605,154.36629 335.33976,146.48037 C 311.60305,134.08912 291.68315,121.22022 289.3967,116.79966 C 287.57986,113.28703 287.61381,107.89284 289.4682,105.44113 C 290.2757,104.37351 290.9507,103.1625 290.9682,102.75 C 291.04097,101.03386 284.08738,102.1964 278.5,104.8345 C 275.2,106.3926 271.15,108.07823 269.5,108.58033 C 267.83362,109.08741 239.16072,109.50279 205,109.51473 L 143.5,109.53622 L 128,112.7557 C 119.475,114.52641 109.125,116.91437 105,118.06228 C 100.875,119.21018 92.55,121.03819 86.5,122.12451 C 74.239215,124.32603 67.033144,127.20009 60.640747,132.43818 C 54.935358,137.11332 50.484682,138.85704 39.878942,140.57239 C 24.304733,143.09133 16.589139,147.66393 30.25,146.27892 C 39.841988,145.30644 60.786117,145.30036 64.25,146.26905 C 65.7625,146.69203 67,147.69339 67,148.4943 C 67,149.64423 66.460512,149.74539 64.4349,148.97525 C 59.791005,147.20964 24.316175,148.31701 27.190146,150.13786 C 28.720599,151.10751 59.985017,161.51844 74.5,165.89186 C 89.247599,170.33537 122.97633,178.35701 123.73258,177.60075 C 123.8729,177.46043 118.59047,174.82385 111.99385,171.74167 C 101.17724,166.68775 97.501253,164 101.40573,164 C 102.17888,164 110.61638,167.81054 120.15573,172.46787 C 140.71275,182.50428 149.94514,185.22108 162.03635,184.79199 L 170.26436,184.5 L 165.52843,179.23768 C 157.98057,170.85087 144.50815,165.29699 122.53542,161.51418 C 112.94204,159.86259 109.03768,158 115.16901,158 C 125.74052,158 149.64941,164.36608 158.4519,169.52468 C 163.80846,172.66383 169.51271,178.15701 171.59267,182.17921 L 173.18851,185.26521 L 179.34425,184.44903 C 182.72991,184.00013 226.225,183.56044 276,183.47194 C 358.42938,183.32538 371.44012,183.06031 380.34824,181.34605 L 383.19648,180.79793 L 379.98582,177.48537 C 378.21996,175.66346 377.08586,173.67009 377.4656,173.05565 C 377.89604,172.3592 380.18022,173.99527 383.53112,177.40013 C 390.37508,184.35432 398.79419,190.06293 410.35604,195.58885 C 415.38522,197.99252 419.67221,199.96835 419.88268,199.97958 C 420.09316,199.99081 416.90022,196.47774 412.78726,192.17275 z M 80,150 C 80,148.53333 80.666667,148 82.5,148 C 84.333333,148 85,148.53333 85,150 C 85,151.46667 84.333333,152 82.5,152 C 80.666667,152 80,151.46667 80,150 z M 393.75,122.83772 C 391.47833,122.00803 391,121.23559 391,118.3968 C 391,116.5067 392.125,112.19162 393.5,108.80772 C 394.875,105.42383 396,101.63067 396,100.37848 C 396,97.450224 391.98304,94.416028 380.36188,88.566275 C 373.98749,85.357591 369.94493,82.534906 366.99538,79.233206 C 364.66976,76.629943 360.90692,72.444798 358.63349,69.932885 C 356.36007,67.420971 353.24332,63.708471 351.70737,61.682885 C 349.68632,59.01755 348.15912,58 346.17987,58 C 344.6757,58 342.41407,57.277903 341.15404,56.39534 C 338.73394,54.700236 327.05521,51.611455 326.22085,52.445821 C 325.95132,52.715348 326.28649,54.277433 326.96567,55.91712 C 327.64485,57.556807 328.02716,59.418524 327.81524,60.054269 C 327.23043,61.808719 313.4549,65.987472 305,66.975185 C 300.875,67.457073 296.30654,68.153833 294.84787,68.523541 C 291.55595,69.357893 287.7179,65.994934 288.18851,62.688507 C 288.47217,60.695528 289.08073,60.498579 295,60.484094 C 299.07597,60.47412 304.20372,59.588268 308.75,58.108694 C 315.63541,55.867854 316,55.596847 316,52.719612 C 316,49.914872 315.87012,49.804206 314.25,51.228501 C 309.10121,55.754952 303.66939,57.395314 292.5,57.796804 C 286.45,58.014275 281.0725,58.598959 280.55,59.096103 C 277.83476,61.679578 270,59.046887 270,55.551016 C 270,52.562011 273.0629,51.738525 284.75964,51.582769 C 298.53867,51.399286 303.00464,49.707809 309.25,42.307104 C 313.47191,37.304168 313.99257,35 310.90113,35 C 309.74675,35 307.38425,34.355571 305.65113,33.567935 C 303.91801,32.7803 301.6,31.988203 300.5,31.80772 C 298.35909,31.456448 297.4371,28.323786 298.39288,24.648287 C 299.22083,21.464383 305.61023,18.811534 311.54644,19.186991 C 316.21374,19.482191 316.60009,19.723195 318.33695,23.422923 L 320.17859,27.345845 L 322.66177,24.172923 C 325.94218,19.981342 329.41226,20.013277 342.99812,24.360077 C 348.77416,26.208119 355.6598,28.237356 358.29955,28.869492 C 366.90504,30.930229 370.84865,35.042967 368.71327,39.729838 C 367.83485,41.657867 368.2437,42.469968 371.73398,45.729838 C 374.78026,48.575018 376.70804,51.864547 379.59146,59.137724 L 383.41229,68.775448 L 399.95615,69.435795 C 423.14362,70.361321 421.56026,69.781797 425.68341,78.852178 C 427.59548,83.05848 430.92393,88.843192 433.07995,91.707093 C 435.23598,94.570994 437,97.108414 437,97.345802 C 437,97.583191 435.48149,98.062292 433.62554,98.41047 C 431.76959,98.758649 428.84869,100.38373 427.13464,102.02176 C 425.4206,103.65979 423.59677,105 423.08168,105 C 421.81624,105 418,100.05613 418,98.416763 C 418,95.079208 412.75019,80.938394 411.21102,80.130046 C 410.26996,79.635819 403.82134,79.048392 396.88075,78.824654 C 385.0512,78.443314 384.39412,78.520051 386.38075,80.050886 C 390.32396,83.089404 406.0517,92 407.47166,92 C 410.10396,92 410.25161,94.19272 407.95018,99.106368 C 405.78385,103.73157 405.72119,104.44164 406.8341,111.75335 C 408.76689,124.45154 408.93218,124.0128 402.25,123.92105 C 399.0875,123.87763 395.2625,123.39013 393.75,122.83772 z "
     id="path3006" />
</svg>
