<?xml version="1.0" encoding="UTF-8" standalone="no"?>
<!-- Created with Inkscape (http://www.inkscape.org/) -->
<svg
   xmlns:dc="http://purl.org/dc/elements/1.1/"
   xmlns:cc="http://web.resource.org/cc/"
   xmlns:rdf="http://www.w3.org/1999/02/22-rdf-syntax-ns#"
   xmlns:svg="http://www.w3.org/2000/svg"
   xmlns="http://www.w3.org/2000/svg"
   xmlns:sodipodi="http://sodipodi.sourceforge.net/DTD/sodipodi-0.dtd"
   xmlns:inkscape="http://www.inkscape.org/namespaces/inkscape"
   id="svg3089"
   sodipodi:version="0.32"
   inkscape:version="0.45.1"
   width="458"
   height="253"
   version="1.0"
   sodipodi:docbase="C:\Documents and Settings\Christopher\Desktop\Old Desktop\Stuff\Cetacean Size\SVG"
   sodipodi:docname="Hector's_beaked_whale_size.svg"
   inkscape:output_extension="org.inkscape.output.svg.inkscape">
  <metadata
     id="metadata3094">
    <rdf:RDF>
      <cc:Work
         rdf:about="">
        <dc:format>image/svg+xml</dc:format>
        <dc:type
           rdf:resource="http://purl.org/dc/dcmitype/StillImage" />
      </cc:Work>
    </rdf:RDF>
  </metadata>
  <defs
     id="defs3092" />
  <sodipodi:namedview
     inkscape:window-height="573"
     inkscape:window-width="744"
     inkscape:pageshadow="2"
     inkscape:pageopacity="0.0"
     guidetolerance="10.0"
     gridtolerance="10.0"
     objecttolerance="10.0"
     borderopacity="1.0"
     bordercolor="#666666"
     pagecolor="#ffffff"
     id="base"
     inkscape:zoom="1.4388646"
     inkscape:cx="229"
     inkscape:cy="126.5"
     inkscape:window-x="66"
     inkscape:window-y="87"
     inkscape:current-layer="svg3089" />
  <path
     style="fill:#000000"
     d="M 366.65478,228.69496 C 364.11219,226.32719 361.53069,222.95219 360.91812,221.19496 L 359.80435,218 L 350.65217,217.9941 C 339.21435,217.98674 326.04118,216.03047 309.96036,211.9512 C 289.36878,206.72768 289.41428,206.73166 257,207.31661 C 227.56193,207.84785 207.71652,209.37053 177,213.45476 C 170.675,214.29577 162.5176,214.98749 158.87244,214.99193 C 153.96259,214.99791 151.89286,215.42417 150.88661,216.63663 C 150.13955,217.53677 147.49695,219.15052 145.01416,220.22273 C 140.92644,221.98805 139.82947,222.0587 133.40199,220.97064 C 128.07483,220.06885 125.00635,220.04737 121.10277,220.88454 C 109.05894,223.46748 81.272648,221.58877 71.7152,217.54531 C 68.897387,216.35318 63.787543,215.86575 51.7152,215.6375 C 34.791395,215.31753 29.775051,214.31671 27.943707,210.89482 C 26.483808,208.16697 28.080537,205.79851 33.894717,202.06756 C 36.621335,200.31789 40.53831,196.82868 42.599107,194.31375 C 49.670706,185.68379 63.649967,176.96587 79.943407,171.02462 C 84.099533,169.50913 93.125,166.0037 100,163.23477 C 134.01722,149.53424 170.04977,140.22164 201.58957,136.97898 C 207.59031,136.36203 221.725,135.99375 233,136.16058 C 255.88162,136.49914 256.25597,136.41508 267.43564,128.4288 C 274.01972,123.72541 277.37357,123.97726 277.80784,129.20766 C 277.97715,131.24688 277.626,133.83032 277.02749,134.94863 C 273.71384,141.14025 285.07678,149.1545 312.5,159.9673 C 336.01918,169.24075 354.43167,179.89099 370.04603,193.25335 L 377.59205,199.71103 L 388.04603,201.43306 C 393.79571,202.38018 402.4072,204.45147 407.18266,206.03593 C 416.99588,209.29186 429.17061,215.01184 429.70597,216.6179 C 429.94024,217.32072 425.34836,217.91057 416.28101,218.34242 C 396.21084,219.29829 386.28604,222.06423 376.74135,229.36172 C 374.12409,231.36278 371.82406,233 371.63018,233 C 371.4363,233 369.19737,231.06273 366.65478,228.69496 z M 375.67015,226.43802 C 384.36401,219.80689 398.44846,216 414.28797,216 C 419.80626,216 423.02532,215.64019 422.45,215.0877 C 420.87187,213.57219 408.97902,209.04339 401,206.91953 C 390.83434,204.21363 375.16833,202.04054 365.66667,202.01832 C 359.85329,202.00472 357.9395,201.67767 358.24504,200.75 C 358.49715,199.98458 361.28362,199.30617 365.43283,199 L 372.20892,198.5 L 365.85446,193.38105 C 350.43004,180.95563 333.05813,171.0332 313.5,163.4774 C 290.81994,154.71552 276.58896,146.25029 273.98956,139.9748 C 272.8339,137.18477 272.89183,136.35633 274.44419,133.47378 C 276.26654,130.08987 275.92135,128 273.54007,128 C 272.80202,128 269.56608,129.96359 266.34908,132.36354 C 263.13209,134.76348 258.925,137.21513 257,137.81165 C 254.93046,138.45296 244.4903,138.8948 231.45532,138.89273 C 207.6525,138.88896 191.98931,140.35398 171.39222,144.51057 C 149.25889,148.97718 117.13223,159.00913 95.5,168.20885 C 91.65,169.84617 85.125,172.32631 81,173.72027 C 66.099437,178.75561 53.525902,186.36168 45.39393,195.25936 C 42.668378,198.24154 38.530598,201.94403 36.198862,203.4871 C 33.867127,205.03017 32.119657,206.45299 32.315595,206.64893 C 32.511533,206.84487 35.289789,206.10447 38.489497,205.00361 C 46.263346,202.32902 60.452759,199 64.078957,199 C 69.014762,199 67.319439,200.79503 61.25,201.99534 C 53.815392,203.46562 42.952943,206.39879 36,208.81355 L 30.5,210.7237 L 36,211.79846 C 50.755863,214.68194 64.61342,214.02631 75.405401,209.93412 C 78.103371,208.91108 80.690871,208.30895 81.155401,208.59604 C 82.949274,209.70472 81.825561,210.9012 77.404845,212.58949 C 72.936185,214.29609 72.874247,214.37729 75.154845,215.5393 C 79.76746,217.88952 91.712368,219.47915 104.5,219.44457 C 121.899,219.39753 123.49299,218.39368 113.02884,214.07334 C 108.61298,212.25016 105,210.38937 105,209.93825 C 105,207.91019 107.27508,208.34449 115.71726,211.98411 C 125.222,216.08183 135.04641,219 139.33718,219 C 142.94719,219 149,215.19244 149,212.92155 C 149,209.64193 138.10189,205.42689 120.75,201.99534 C 116.86406,201.22685 115,200.38022 115,199.38379 C 115,197.63964 117.55665,197.98539 131.958,201.67709 C 142.47085,204.372 150.65169,208.3272 151.5469,211.14778 C 152.31401,213.56471 155.60781,213.54564 174.04337,211.01753 C 213.76987,205.56975 268.347,202.60846 288.5,204.80725 C 293.45,205.34732 303.8,207.40826 311.5,209.38711 C 319.2,211.36597 331.73257,213.74865 339.35015,214.68195 C 353.18862,216.37744 358.27415,216.18107 373.8774,213.34869 C 376.48752,212.87488 377.15019,213.04943 376.79434,214.11699 C 376.54109,214.87674 373.44626,216.14245 369.91694,216.92966 C 366.38762,217.71687 363.35104,218.4662 363.16898,218.59483 C 361.95002,219.45607 369.4472,229 371.3427,229 C 371.87539,229 373.82274,227.84711 375.67015,226.43802 z M 79.190371,197.25 C 79.628548,194.97473 83.371452,194.97473 83.809629,197.25 C 84.062056,198.56075 83.482339,199 81.5,199 C 79.517661,199 78.937944,198.56075 79.190371,197.25 z M 386.8024,150.05094 C 379.06514,148.54629 378.28475,145.1168 383,133.34103 C 384.65,129.22035 386,124.76071 386,123.43071 C 386,120.26067 380.35426,116.1006 368.06629,110.21625 C 358.61346,105.68956 352.04991,100.27881 348.28956,93.913033 C 347.3423,92.309452 345.81615,90.759036 344.89812,90.467663 C 343.98008,90.17629 341.96453,88.039368 340.41912,85.718947 C 335.43783,78.239594 331.87557,75 328.63257,75 C 326.99627,75 324.94705,74.373467 324.07874,73.607705 C 322.50999,72.224225 306.87079,67.867866 306.09353,68.597858 C 305.86997,68.807822 306.50754,70.799124 307.51036,73.022974 C 308.71187,75.687442 308.99653,77.403474 308.34507,78.054929 C 305.92267,80.47733 289.86292,84.727913 278.69068,85.903645 C 265.27041,87.315952 264,86.920444 264,81.330089 L 264,77.905067 L 271.75,78.089203 C 277.66611,78.229767 280.75108,77.767736 284.78702,76.13667 C 287.69488,74.961501 291.18238,74 292.53702,74 C 294.74899,74 295,73.587156 295,69.949109 L 295,65.898217 L 291.75,68.350784 C 285.59813,72.993204 281.10237,74.243108 267.63435,75.055371 C 260.55824,75.482135 254.28074,76.319262 253.68435,76.915653 C 250.77105,79.828949 243,76.721533 243,72.643296 C 243,68.491144 244.64751,68 258.57557,68 C 275.19547,68 279.95217,66.251501 287.28377,57.447257 C 289.91484,54.287699 291.91701,51.251021 291.73303,50.699082 C 291.43518,49.805535 286.16916,47.992935 279,46.316284 C 275.32225,45.45617 274,44.076738 274,41.100062 C 274,38.022968 276.5125,34 278.43426,34 C 279.16073,34 280.30543,33.336908 280.97804,32.526462 C 282.77158,30.365377 288.34205,29.627752 292.50164,31.000542 C 295.89211,32.119496 296.78855,33.240365 298.46814,38.460777 C 299.03936,40.236209 299.42034,40.070788 302.49852,36.710777 C 306.86914,31.939978 309.42013,31.919151 323.05352,36.542956 C 328.79908,38.491582 336.555,40.739074 340.28888,41.537383 C 347.63469,43.107926 351.88303,44.949213 353.97403,47.468705 C 355.4969,49.303655 355.60241,54.797588 354.14281,56.257189 C 353.49859,56.901409 354.59731,58.333941 357.32982,60.412477 C 360.87608,63.110004 362.26323,65.373649 366.60129,75.5423 L 371.70258,87.5 L 384.10129,88.253005 C 390.92058,88.667157 399.65,89.006118 403.5,89.006252 C 415.1547,89.006655 415.72643,89.355954 419.53822,98.804842 C 421.50498,103.68016 424.94876,109.66545 427.97623,113.47013 L 433.0913,119.89833 L 429.03252,120.99124 C 426.80019,121.59235 423.45774,123.41522 421.60486,125.04208 C 415.00175,130.83968 413.14692,129.12357 408.58936,113 C 407.11244,107.775 405.08071,102.66757 404.0744,101.65015 C 402.54301,100.10186 400.39091,99.758165 390.87238,99.541786 C 384.61757,99.399599 377.7,98.935213 375.5,98.509817 L 371.5,97.73637 L 374,99.698813 C 378.85681,103.5113 395.53647,113.1333 398.25,113.68792 C 401.71475,114.39609 401.86571,117.1646 398.7853,123.50503 L 396.57059,128.06356 L 398.34225,138.53511 C 399.31667,144.29446 399.83673,149.45516 399.49794,150.00333 C 398.80821,151.11934 392.41958,151.1433 386.8024,150.05094 z "
     id="path3098" />
</svg>
