<?xml version="1.0" encoding="UTF-8" standalone="no"?>
<!-- Created with Inkscape (http://www.inkscape.org/) -->
<svg
   xmlns:dc="http://purl.org/dc/elements/1.1/"
   xmlns:cc="http://web.resource.org/cc/"
   xmlns:rdf="http://www.w3.org/1999/02/22-rdf-syntax-ns#"
   xmlns:svg="http://www.w3.org/2000/svg"
   xmlns="http://www.w3.org/2000/svg"
   xmlns:sodipodi="http://sodipodi.sourceforge.net/DTD/sodipodi-0.dtd"
   xmlns:inkscape="http://www.inkscape.org/namespaces/inkscape"
   id="svg2509"
   sodipodi:version="0.32"
   inkscape:version="0.45.1"
   width="900"
   height="350"
   version="1.0"
   sodipodi:docbase="C:\Documents and Settings\Christopher\Desktop\Old Desktop\Stuff\Cetacean Size\New\SVG 2"
   sodipodi:docname="Spectacled porpoise size.svg"
   inkscape:output_extension="org.inkscape.output.svg.inkscape">
  <metadata
     id="metadata2514">
    <rdf:RDF>
      <cc:Work
         rdf:about="">
        <dc:format>image/svg+xml</dc:format>
        <dc:type
           rdf:resource="http://purl.org/dc/dcmitype/StillImage" />
      </cc:Work>
    </rdf:RDF>
  </metadata>
  <defs
     id="defs2512" />
  <sodipodi:namedview
     inkscape:window-height="573"
     inkscape:window-width="744"
     inkscape:pageshadow="2"
     inkscape:pageopacity="0.0"
     guidetolerance="10.0"
     gridtolerance="10.0"
     objecttolerance="10.0"
     borderopacity="1.0"
     bordercolor="#666666"
     pagecolor="#ffffff"
     id="base"
     inkscape:zoom="0.73222222"
     inkscape:cx="450"
     inkscape:cy="175"
     inkscape:window-x="88"
     inkscape:window-y="116"
     inkscape:current-layer="svg2509" />
  <path
     style="fill:#000000"
     d="M 761.5,330.53634 C 750.74906,328.56559 746.09049,326.88695 742.77374,323.78864 L 739.73501,320.95004 L 740.26896,311.22502 C 740.82618,301.07633 742.23289,296.10617 749.38966,279 C 754.34442,267.15709 755.64481,260.97093 754.00948,257.02287 C 751.787,251.65735 740.83855,242.81548 724.33405,233.05726 C 715.62532,227.90827 707.825,223.12332 707,222.42405 C 706.175,221.72478 702.95938,220.20351 699.85418,219.04346 C 692.52813,216.30655 683.17004,210.21811 676.26578,203.69668 C 670.6692,198.41042 657.27185,181.36016 654.49436,175.98909 C 653.65384,174.36371 651.70432,172.38134 650.16209,171.58382 C 645.56914,169.20871 640.16514,163.1058 633.26376,152.5 C 625.54782,140.64239 619.03517,132.76242 613.84169,129.00028 C 610.43528,126.53269 609.68079,126.36306 606.22009,127.28678 C 601.01258,128.67674 597.3636,127.56466 593.09106,123.28549 C 589.91897,120.10849 587.57492,119.13106 573,114.90786 C 563.925,112.2783 554.82695,109.42331 552.78212,108.56342 C 548.01945,106.56065 548.30574,106.46472 547.7489,110.25 C 547.4003,112.61973 548.33138,115.81595 551.18648,122.05057 C 556.72634,134.14784 556.52721,134.49061 540.84476,139.85217 C 513.32876,149.25942 509.70333,150.0993 492.5,151.05179 C 472.69107,152.14855 466.19627,152.87341 465.45675,154.06999 C 464.66818,155.34591 452.77757,155.24528 449.3151,153.93339 C 443.27476,151.64477 442,149.3776 442,140.92351 L 442,133.19565 L 445.14922,132.09783 C 451.55379,129.86518 468.46665,131.4475 471.01471,134.51772 C 471.97168,135.6708 474.04296,135.2365 483.61118,131.87651 C 496.64415,127.29984 505.68011,124.71333 514.86499,122.93021 L 521.22998,121.69454 L 520.61499,117.2077 C 520.27675,114.73994 520,109.77577 520,106.17622 L 520,99.631579 L 515.25,104.45284 C 509.96846,109.81363 496.18415,117.00273 482.5,121.53336 L 474.5,124.18204 L 446.3284,123.51027 C 419.09057,122.86076 418.12232,122.90292 417.11662,124.7821 C 415.49633,127.80964 410.6132,129.34309 404.5766,128.72006 C 394.67411,127.69803 389.01141,122.57538 389.00374,114.63235 C 389.00066,111.45103 389.70967,110.05504 392.99919,106.76551 C 396.11215,103.65256 397.49718,102.90742 399.24919,103.40304 C 402.31971,104.27165 458.51844,106.09178 460.73034,105.39426 C 461.70365,105.08732 468.65472,102.28555 476.17715,99.168096 C 487.03012,94.670396 490.2042,92.909378 491.54885,90.639685 C 492.48085,89.066511 497.59855,82.316511 502.92151,75.639685 L 512.59962,63.5 L 510.04981,59.370557 C 507.54805,55.318932 507.37563,55.232139 500.90042,54.76484 C 494.18717,54.280362 484.36172,50.10619 483.27625,47.277524 C 482.95819,46.448656 480.79459,46 477.11552,46 C 468.25859,46 467,44.620314 467,34.911177 C 467,23.265389 470.41262,17 476.75584,17 C 478.05679,17 480.57342,15.493245 482.51445,13.552218 C 486.54947,9.517192 491.17346,8.013292 499.5685,8.0055769 C 507.43845,7.9983445 515.18378,10.344449 519.34142,13.994908 C 522.39981,16.680207 525,22.383507 525,26.406512 C 525,28.614267 529.02233,34 530.67119,34 C 531.38348,34 534.26244,31.078164 537.06889,27.50703 C 548.90026,12.451886 552.91375,12.430408 590,27.223781 C 609.71363,35.087372 618.5339,38.043648 632.79018,41.565711 C 647.47429,45.193468 657.20295,49.286531 663.59911,54.527705 C 672.79883,62.06618 674.67976,74.362046 667.76278,81.746057 C 666.60558,82.981388 665.84805,84.140743 666.07939,84.322401 C 666.31073,84.504058 668.16932,85.656298 670.2096,86.882932 C 679.91247,92.716392 689.18314,102.82015 693.25567,112 C 694.35368,114.475 697.17523,121.675 699.52579,128 C 701.87636,134.325 706.30046,145.35 709.35713,152.5 L 714.91472,165.5 L 736.87887,167.17431 C 748.95915,168.09519 763.49084,169.60015 769.17151,170.51868 C 774.85218,171.4372 788.05,172.5444 798.5,172.97911 C 823.09521,174.00224 826.79224,175.26492 830.71037,183.98022 C 832.07521,187.0161 835.17043,194.57397 837.58863,200.77549 C 840.00683,206.97701 842.94863,213.95201 844.12597,216.27549 C 847.30569,222.5507 856.99458,236.43739 864.44214,245.39385 C 871.861,254.31577 871.83298,255.22671 864.0887,256.88756 C 853.53727,259.15043 848.25699,261.90377 841.69257,268.56575 C 835.99967,274.34326 834.94538,275 831.36336,275 C 828.30194,275 826.7758,274.36044 824.80125,272.25 C 820.79796,267.9712 819.28262,264.2078 814.94849,247.78025 C 812.7312,239.37611 809.06134,226.875 806.79325,220 C 802.98334,208.45146 802.28241,207.12665 797.58472,202.59506 L 792.5,197.69012 L 774,197.45964 C 748.35423,197.14013 725.7413,194.28766 711.60298,189.58868 C 707.69634,188.29027 705.32016,187.73915 706.32258,188.36397 C 712.33967,192.11447 753.70876,219.79347 760,224.27816 C 766.38299,228.82825 784.4147,238.36532 786.83487,238.47126 C 790.2569,238.62107 792.25483,241.7786 791.59866,246 C 791.29945,247.925 788.98837,253.69574 786.46294,258.82386 C 779.86475,272.22211 779.73649,275.86055 784.90461,303.03002 C 789.34161,326.35595 789.61566,328.98434 787.8,330.8 C 786.21834,332.38166 770.71909,332.22628 761.5,330.53634 z M 509.33258,262.47582 C 494.55491,258.49341 471.08103,245.45174 458.74712,234.37144 C 455.17474,231.16216 454.62537,231 447.32505,231 C 443.10699,231 436.02079,230.33832 431.57793,229.52961 C 406.0133,224.87617 380.78199,223.9776 346.5,226.49969 C 293.76253,230.37953 237.20721,229.03647 205.8099,223.15862 L 201.1198,222.28059 L 204.13828,227.3903 C 209.62377,236.67617 212.17858,242.86197 211.46146,245.12143 C 210.84256,247.07142 210.26861,247.21146 204.89316,246.72403 C 198.85382,246.1764 189.32553,242.33186 182.48147,237.6812 L 178.80707,235.18438 L 176.0171,238.30689 L 173.22713,241.42941 L 168.91004,238.4647 C 161.98374,233.70817 152.81235,224.62135 148.58605,218.32812 L 144.6721,212.5 L 128.58605,208.61197 C 104.85906,202.87711 70.119697,192.73196 57,187.70624 C 43.051352,182.36299 38.373291,180.0849 30.264989,174.68701 C 25.121807,171.26307 23.764684,169.75762 22.514989,166.08997 C 20.343939,159.71829 20.634717,155.12572 23.583898,149.20748 C 31.033575,134.25793 55.600248,123.54323 103,114.57032 C 124.19391,110.55825 142.20097,108.99076 173.5,108.43336 C 214.67624,107.70006 222.94955,106.34565 246.04015,96.557921 C 262.73365,89.481816 269.58785,87.715055 278.59292,88.167013 C 284.55616,88.466304 286.28754,88.98194 289.46373,91.404537 C 295.02541,95.646639 298.009,102.94873 298.84348,114.36072 C 299.43446,122.44267 299.89755,124.17691 302.30893,127.33838 C 307.37324,133.97803 326.22488,141.19959 344.5,143.50064 C 357.90339,145.18828 376.84248,150.84005 391.5,157.52629 C 408.11618,165.106 432.09704,181.12446 446.48016,194.2513 L 452.46032,199.70913 L 458.61401,196.32664 C 465.64685,192.46091 475.6646,190.0426 484.75,190.01736 C 491.4841,189.99866 492.42177,190.8384 488.52081,193.39441 C 484.12744,196.27305 482.68158,200.49857 483.37443,208.4347 C 483.71368,212.32062 483.58908,216.12736 483.09753,216.89414 C 482.43057,217.93453 483.6894,219.28033 488.05866,222.19801 C 493.88635,226.08959 500.00803,233.041 507.72614,244.53122 C 509.95432,247.84839 514.75247,253.34549 518.38869,256.74699 C 522.02491,260.1485 525,263.17195 525,263.46578 C 525,264.51343 514.41084,263.84435 509.33258,262.47582 z M 515.89877,258.28958 C 513.63993,256.24885 508.5911,250.06135 504.67915,244.53958 C 500.76721,239.01781 495.85157,232.63613 493.75551,230.35806 C 490.33919,226.64509 482.92609,222.14079 477.50653,220.48497 C 475.60278,219.90333 475.62529,219.79119 478.00653,217.99389 C 480.31994,216.24777 480.5,215.50052 480.5,207.64569 C 480.5,200.40315 480.82952,198.73295 482.77994,196.08976 L 485.05987,193 L 481.57916,193 C 475.87125,193 467.89928,195.02196 461.25,198.15617 C 457.8125,199.77646 455,201.42875 455,201.8279 C 455,202.22706 458.15,205.6795 462,209.5 C 468.18827,215.64085 470.42448,219 468.32423,219 C 467.95256,219 461.76506,213.2414 454.57423,206.2031 C 434.47491,186.53013 418.16704,174.54254 396.5,163.51389 C 378.08875,154.14244 363.93699,149.54758 342.5,145.98088 C 318.7907,142.03611 304.1139,135.77447 298.93473,127.39439 C 297.18531,124.56377 296.47904,121.48025 295.93621,114.30302 C 295.05678,102.67544 292.31153,96.593188 286.44126,93.26645 C 278.87781,88.980172 266.10278,90.799254 249.31715,98.552681 C 245.36635,100.37759 238.60765,102.98463 234.29782,104.34611 C 217.54466,109.63842 213.34154,110.13155 177.5,111.00985 C 140.74504,111.91053 130.29723,112.75108 108,116.60128 C 49.448522,126.71174 21.716727,141.32506 24.368397,160.6711 C 24.720513,163.24006 25.136324,165.46966 25.292423,165.62576 C 25.448521,165.78185 28.934084,165.04413 33.038119,163.98637 C 41.655462,161.76537 59.30345,159.51873 61.502883,160.36273 C 64.606052,161.55353 62.824332,163.00014 58.25,163.00381 C 52.952836,163.00805 39.100137,165.21508 31.604511,167.24899 L 26.709021,168.57737 L 30.104511,171.45486 C 34.320662,175.02781 50.543459,182.80444 62.5,186.9841 C 82.059862,193.82166 148.639,211.69433 149.89003,210.4433 C 150.16393,210.16941 147.60072,207.13301 144.19401,203.69575 C 138.46372,197.91406 136.68832,195 138.89612,195 C 139.38898,195 143.27351,198.7125 147.52841,203.25 C 170.51436,227.76262 190.81233,242.40267 203.64926,243.72756 L 209.01038,244.28088 L 207.54993,240.14151 C 206.74668,237.86487 204.18559,232.73917 201.85862,228.75108 C 189.67056,207.86253 183.94389,201.54545 173.86383,197.87008 C 170.6173,196.68633 168,195.12231 168,194.36601 C 168,192.35115 169.80663,192.67356 176.64532,195.90882 C 184.41802,199.58595 189.68159,204.33698 194.96244,212.44235 C 197.25314,215.95825 199.83766,219.10746 200.70582,219.44061 C 203.69601,220.58805 232.69744,223.94921 249.58105,225.10507 C 269.75929,226.48648 326.24671,225.7156 345.5,223.79608 C 373.58319,220.99623 408.32641,222.4365 436.36047,227.56267 C 440.68373,228.3532 446.08373,228.98429 448.36047,228.96508 L 452.5,228.93017 L 447.75,224.86102 C 445.1375,222.62299 443,220.3887 443,219.89593 C 443,217.62001 446.31458,219.76294 456.5,228.6239 C 469.66328,240.0755 479.07511,246.46017 492.5,253.04509 C 500.41869,256.92922 513.9319,261.41588 519.25288,261.9276 C 519.66697,261.96742 518.15762,260.33031 515.89877,258.28958 z M 72.024134,154.0451 C 71.147347,152.4068 71.223084,151.85162 72.38415,151.40608 C 75.253166,150.30514 78.5,151.41677 78.5,153.5 C 78.5,156.42183 73.520442,156.84097 72.024134,154.0451 z M 174.63161,235.33166 C 175.20319,233.05431 174.72977,232.21283 171.40066,229.5888 C 169.2553,227.89781 165.25,224.45005 162.5,221.92711 C 156.16261,216.11298 153.02858,214 150.74231,214 C 149.27184,214 149.12144,214.35839 149.94564,215.89844 C 152.64536,220.94291 170.61349,237.99712 173.23095,237.99937 C 173.63297,237.99972 174.26327,236.79925 174.63161,235.33166 z "
     id="path2518" />
</svg>
