<svg version="1.1" id="Layer_1" xmlns="http://www.w3.org/2000/svg" xmlns:xlink="http://www.w3.org/1999/xlink" x="0px" y="0px"
	 width="100%" viewBox="0 0 719 719" enable-background="new 0 0 719 719" xml:space="preserve">
<path fill="#000000" opacity="1.000000" stroke="none" 
	d="
M419.000000,720.000000 
	C279.333344,720.000000 140.166672,720.000000 1.000000,720.000000 
	C1.000000,480.333344 1.000000,240.666672 1.000000,1.000000 
	C240.666672,1.000000 480.333344,1.000000 720.000000,1.000000 
	C720.000000,240.666672 720.000000,480.333344 720.000000,720.000000 
	C619.833313,720.000000 519.666687,720.000000 419.000000,720.000000 
M410.164642,574.008728 
	C409.331848,574.002686 408.475311,574.123169 407.669708,573.972046 
	C388.118073,570.305908 369.347839,563.985718 351.707001,555.015137 
	C337.700775,547.892883 324.487396,539.188354 311.048279,530.979614 
	C292.739471,519.796387 275.191956,507.699463 259.727417,492.547943 
	C250.116959,483.131958 239.059998,475.184723 226.306900,470.023071 
	C199.012756,458.976135 170.950531,454.874695 141.728821,459.934662 
	C123.859360,463.028931 107.754616,469.493774 92.778336,480.224152 
	C79.477509,489.754089 77.608086,507.056763 86.081367,519.592651 
	C91.906952,528.211487 97.896469,536.719421 103.720078,545.339539 
	C116.172264,563.771423 131.002487,580.223816 146.591980,595.953186 
	C161.552460,611.048035 177.914566,624.652893 196.242691,635.469238 
	C208.918869,642.950012 222.449127,649.183105 237.822296,647.921143 
	C249.061951,646.998657 260.402008,646.125610 271.413452,643.854309 
	C291.093140,639.794922 310.748657,635.363892 330.063599,629.857971 
	C352.244751,623.535034 374.150146,617.992615 397.517792,622.882263 
	C415.873230,626.722961 433.196869,632.955933 448.679688,643.409180 
	C458.322083,649.919189 468.872345,652.114258 479.928101,652.922363 
	C491.995605,653.804382 502.965546,649.405945 513.714050,644.604675 
	C534.652588,635.251404 552.365784,621.217529 568.207886,605.020386 
	C580.382568,592.572815 591.505371,579.065552 602.704346,565.701233 
	C621.900452,542.793396 635.904236,516.862122 645.904968,488.776337 
	C648.724365,480.858521 650.630188,472.619232 653.089661,464.568512 
	C657.151489,451.272308 659.584900,437.775299 658.870117,422.792084 
	C657.916504,424.439575 657.383850,425.204468 657.004089,426.038910 
	C650.234375,440.913147 644.550903,456.411530 636.425537,470.502228 
	C628.418884,484.387115 618.452148,497.258423 608.362183,509.782318 
	C602.134277,517.512512 594.135315,523.834045 586.811218,530.658936 
	C575.048828,541.619507 561.598694,550.220215 547.623108,558.003418 
	C531.371155,567.054443 514.204468,573.828369 496.053558,577.149780 
	C496.513611,575.599060 496.973663,574.048401 497.420044,572.493347 
	C519.200989,566.205322 540.166870,558.150513 559.202942,545.480408 
	C576.864685,533.725037 593.266235,520.564880 606.416443,503.830597 
	C614.682861,493.311157 622.841675,482.601898 629.897583,471.261475 
	C640.111938,454.844666 647.054077,436.841217 652.405884,418.256439 
	C658.111511,398.442932 661.344055,378.207733 661.896545,357.624359 
	C662.162964,347.699921 661.634644,337.724182 660.912476,327.811981 
	C660.244995,318.649078 659.709045,309.329224 657.560425,300.454865 
	C654.027405,285.862518 649.972534,271.305115 644.808716,257.220215 
	C636.900330,235.648956 626.044495,215.496109 611.841736,197.289719 
	C608.459961,192.954620 604.505920,191.942047 600.051636,193.969315 
	C595.087769,196.228470 595.507019,200.557053 596.379883,204.522995 
	C597.995300,211.862762 600.351318,219.037460 602.059570,226.360062 
	C602.621826,228.770432 602.974915,231.830185 601.977905,233.894821 
	C598.530823,241.033081 594.873535,248.146271 590.505127,254.745331 
	C583.913452,264.702881 579.060059,275.041382 580.059082,287.288177 
	C580.340393,290.736481 581.320496,294.127808 582.067871,298.000244 
	C577.697693,298.000244 573.951904,297.465424 570.428772,298.123077 
	C564.867737,299.161224 559.031921,300.158722 554.064270,302.664124 
	C541.350708,309.075958 534.072388,320.657043 527.950928,332.938690 
	C521.185242,346.513000 511.581421,356.817444 496.978424,362.135284 
	C495.195404,362.784576 492.821075,366.571899 493.337555,367.834351 
	C494.618835,370.966034 496.851624,374.834503 499.695160,376.014801 
	C515.894775,382.738831 532.134888,381.495422 547.650757,373.701477 
	C552.938293,371.045471 557.062866,366.077087 562.347595,363.412231 
	C576.198242,356.427765 593.806702,359.648926 603.804932,370.192596 
	C606.590149,373.129730 607.879395,376.326080 607.036133,380.437500 
	C604.220154,394.166534 597.229126,405.107849 586.544495,414.249023 
	C575.008972,424.118225 561.875427,429.795593 547.000122,430.887024 
	C523.250488,432.629578 503.154968,423.804413 486.248047,407.562744 
	C482.548248,404.008545 479.006897,399.562927 477.259369,394.837524 
	C471.731415,379.889679 472.014740,364.661255 477.500336,349.616119 
	C480.868744,340.377625 485.238586,331.353638 487.260712,321.830322 
	C488.509827,315.947571 487.085602,309.025055 485.208099,303.092621 
	C483.561493,297.889832 472.101776,293.940369 465.872192,296.313904 
	C453.665497,300.964813 441.314240,305.633728 429.922638,311.924622 
	C416.097260,319.559540 404.261810,330.085693 393.476898,341.784515 
	C386.963196,348.850159 379.580261,355.114502 373.199799,361.159180 
	C360.963531,356.471680 348.117188,351.194366 335.024475,346.622650 
	C317.622803,340.546265 299.462830,337.038910 281.185394,336.294342 
	C259.886230,335.426727 238.517670,335.267242 217.203705,338.784668 
	C191.414276,343.040619 166.817581,350.698669 143.559769,362.275665 
	C125.205322,371.411926 108.711197,383.367401 94.692673,398.665863 
	C85.094170,409.140747 76.765411,420.314819 71.299850,433.432556 
	C67.511879,442.524017 63.661713,451.689941 64.018890,461.861511 
	C64.297516,469.796387 68.652946,474.219574 76.531502,473.895996 
	C81.232460,473.702911 86.082153,473.062744 90.530945,471.604492 
	C101.401108,468.041443 112.003036,463.665863 122.847122,460.016083 
	C143.375519,453.106903 164.260147,450.642029 185.960464,453.795197 
	C202.552979,456.206146 218.151520,461.122345 233.263962,468.049286 
	C248.586670,475.072632 260.318085,487.027527 273.456329,497.080841 
	C286.919647,507.382874 300.581268,517.487305 314.717499,526.828674 
	C325.726349,534.103455 337.537048,540.181946 349.100342,546.595703 
	C360.707611,553.033813 372.705841,558.564636 385.897949,561.015564 
	C395.576202,562.813660 405.449066,564.268494 410.164642,574.008728 
M428.916016,638.481689 
	C411.564392,632.143127 394.377319,625.986206 375.173340,627.754089 
	C362.453979,628.924988 349.997528,630.816467 337.732971,634.106628 
	C328.872894,636.483459 320.207977,639.593140 311.336639,641.921326 
	C302.905914,644.133850 294.330719,645.805298 285.798920,647.619812 
	C280.097382,648.832336 274.400879,650.195068 268.630707,650.929993 
	C258.484741,652.222168 248.284149,653.085022 236.779312,654.263672 
	C238.720566,656.078735 239.593811,657.482849 240.822968,657.949341 
	C249.076279,661.081665 257.219025,664.785339 265.749695,666.846802 
	C281.926270,670.756042 298.236908,674.370117 314.682495,676.834351 
	C331.483765,679.351807 348.493073,681.363770 365.449768,681.709656 
	C382.011597,682.047363 398.650970,680.336121 415.202240,678.900940 
	C429.487671,677.662231 442.902283,672.949646 455.773438,666.685425 
	C459.581024,664.832336 459.767609,661.405701 458.597839,658.402039 
	C457.654633,655.980164 455.490326,653.570251 453.232452,652.208313 
	C445.488647,647.537415 437.465210,643.330139 428.916016,638.481689 
z"/>
<path fill="#1750B8" opacity="1.000000" stroke="none" 
	d="
M411.028229,574.009033 
	C405.449066,564.268494 395.576202,562.813660 385.897949,561.015564 
	C372.705841,558.564636 360.707611,553.033813 349.100342,546.595703 
	C337.537048,540.181946 325.726349,534.103455 314.717499,526.828674 
	C300.581268,517.487305 286.919647,507.382874 273.456329,497.080841 
	C260.318085,487.027527 248.586670,475.072632 233.263962,468.049286 
	C218.151520,461.122345 202.552979,456.206146 185.960464,453.795197 
	C164.260147,450.642029 143.375519,453.106903 122.847122,460.016083 
	C112.003036,463.665863 101.401108,468.041443 90.530945,471.604492 
	C86.082153,473.062744 81.232460,473.702911 76.531502,473.895996 
	C68.652946,474.219574 64.297516,469.796387 64.018890,461.861511 
	C63.661713,451.689941 67.511879,442.524017 71.299850,433.432556 
	C76.765411,420.314819 85.094170,409.140747 94.692673,398.665863 
	C108.711197,383.367401 125.205322,371.411926 143.559769,362.275665 
	C166.817581,350.698669 191.414276,343.040619 217.203705,338.784668 
	C238.517670,335.267242 259.886230,335.426727 281.185394,336.294342 
	C299.462830,337.038910 317.622803,340.546265 335.024475,346.622650 
	C348.117188,351.194366 360.963531,356.471680 373.199799,361.159180 
	C379.580261,355.114502 386.963196,348.850159 393.476898,341.784515 
	C404.261810,330.085693 416.097260,319.559540 429.922638,311.924622 
	C441.314240,305.633728 453.665497,300.964813 465.872192,296.313904 
	C472.101776,293.940369 483.561493,297.889832 485.208099,303.092621 
	C487.085602,309.025055 488.509827,315.947571 487.260712,321.830322 
	C485.238586,331.353638 480.868744,340.377625 477.500336,349.616119 
	C472.014740,364.661255 471.731415,379.889679 477.259369,394.837524 
	C479.006897,399.562927 482.548248,404.008545 486.248047,407.562744 
	C503.154968,423.804413 523.250488,432.629578 547.000122,430.887024 
	C561.875427,429.795593 575.008972,424.118225 586.544495,414.249023 
	C597.229126,405.107849 604.220154,394.166534 607.036133,380.437500 
	C607.879395,376.326080 606.590149,373.129730 603.804932,370.192596 
	C593.806702,359.648926 576.198242,356.427765 562.347595,363.412231 
	C557.062866,366.077087 552.938293,371.045471 547.650757,373.701477 
	C532.134888,381.495422 515.894775,382.738831 499.695160,376.014801 
	C496.851624,374.834503 494.618835,370.966034 493.337555,367.834351 
	C492.821075,366.571899 495.195404,362.784576 496.978424,362.135284 
	C511.581421,356.817444 521.185242,346.513000 527.950928,332.938690 
	C534.072388,320.657043 541.350708,309.075958 554.064270,302.664124 
	C559.031921,300.158722 564.867737,299.161224 570.428772,298.123077 
	C573.951904,297.465424 577.697693,298.000244 582.067871,298.000244 
	C581.320496,294.127808 580.340393,290.736481 580.059082,287.288177 
	C579.060059,275.041382 583.913452,264.702881 590.505127,254.745331 
	C594.873535,248.146271 598.530823,241.033081 601.977905,233.894821 
	C602.974915,231.830185 602.621826,228.770432 602.059570,226.360062 
	C600.351318,219.037460 597.995300,211.862762 596.379883,204.522995 
	C595.507019,200.557053 595.087769,196.228470 600.051636,193.969315 
	C604.505920,191.942047 608.459961,192.954620 611.841736,197.289719 
	C626.044495,215.496109 636.900330,235.648956 644.808716,257.220215 
	C649.972534,271.305115 654.027405,285.862518 657.560425,300.454865 
	C659.709045,309.329224 660.244995,318.649078 660.912476,327.811981 
	C661.634644,337.724182 662.162964,347.699921 661.896545,357.624359 
	C661.344055,378.207733 658.111511,398.442932 652.405884,418.256439 
	C647.054077,436.841217 640.111938,454.844666 629.897583,471.261475 
	C622.841675,482.601898 614.682861,493.311157 606.416443,503.830597 
	C593.266235,520.564880 576.864685,533.725037 559.202942,545.480408 
	C540.166870,558.150513 519.200989,566.205322 497.426880,572.495483 
	C496.973663,574.048401 496.513611,575.599060 495.890259,577.930542 
	C495.515900,580.012573 495.101349,581.317627 495.125031,582.614685 
	C495.385864,596.903015 490.600861,609.705872 483.433258,621.725708 
	C475.094482,635.709595 462.497406,637.653381 451.542877,625.746521 
	C444.305328,617.879822 438.932648,608.328186 432.327972,599.839844 
	C425.477417,591.035583 418.148132,582.603760 411.028229,574.009033 
M278.599701,450.011810 
	C282.703247,452.076965 286.540649,451.174347 289.264374,447.904022 
	C291.815826,444.840515 293.474823,440.981903 290.961090,436.964966 
	C289.144409,434.061859 287.190552,431.187622 284.921600,428.634979 
	C277.453979,420.233582 267.898132,414.431366 257.666748,410.610779 
	C247.967682,406.988953 237.524200,406.014191 228.252304,413.220245 
	C222.792343,417.463654 222.685608,421.454437 228.689285,424.826691 
	C238.070312,430.096069 247.644989,435.028595 257.225098,439.932953 
	C264.003906,443.403198 270.927307,446.591003 278.599701,450.011810 
z"/>
<path fill="#2890FF" opacity="1.000000" stroke="none" 
	d="
M410.596436,574.008911 
	C418.148132,582.603760 425.477417,591.035583 432.327972,599.839844 
	C438.932648,608.328186 444.305328,617.879822 451.542877,625.746521 
	C462.497406,637.653381 475.094482,635.709595 483.433258,621.725708 
	C490.600861,609.705872 495.385864,596.903015 495.125031,582.614685 
	C495.101349,581.317627 495.515900,580.012573 495.875427,578.321228 
	C514.204468,573.828369 531.371155,567.054443 547.623108,558.003418 
	C561.598694,550.220215 575.048828,541.619507 586.811218,530.658936 
	C594.135315,523.834045 602.134277,517.512512 608.362183,509.782318 
	C618.452148,497.258423 628.418884,484.387115 636.425537,470.502228 
	C644.550903,456.411530 650.234375,440.913147 657.004089,426.038910 
	C657.383850,425.204468 657.916504,424.439575 658.870117,422.792084 
	C659.584900,437.775299 657.151489,451.272308 653.089661,464.568512 
	C650.630188,472.619232 648.724365,480.858521 645.904968,488.776337 
	C635.904236,516.862122 621.900452,542.793396 602.704346,565.701233 
	C591.505371,579.065552 580.382568,592.572815 568.207886,605.020386 
	C552.365784,621.217529 534.652588,635.251404 513.714050,644.604675 
	C502.965546,649.405945 491.995605,653.804382 479.928101,652.922363 
	C468.872345,652.114258 458.322083,649.919189 448.679688,643.409180 
	C433.196869,632.955933 415.873230,626.722961 397.517792,622.882263 
	C374.150146,617.992615 352.244751,623.535034 330.063599,629.857971 
	C310.748657,635.363892 291.093140,639.794922 271.413452,643.854309 
	C260.402008,646.125610 249.061951,646.998657 237.822296,647.921143 
	C222.449127,649.183105 208.918869,642.950012 196.242691,635.469238 
	C177.914566,624.652893 161.552460,611.048035 146.591980,595.953186 
	C131.002487,580.223816 116.172264,563.771423 103.720078,545.339539 
	C97.896469,536.719421 91.906952,528.211487 86.081367,519.592651 
	C77.608086,507.056763 79.477509,489.754089 92.778336,480.224152 
	C107.754616,469.493774 123.859360,463.028931 141.728821,459.934662 
	C170.950531,454.874695 199.012756,458.976135 226.306900,470.023071 
	C239.059998,475.184723 250.116959,483.131958 259.727417,492.547943 
	C275.191956,507.699463 292.739471,519.796387 311.048279,530.979614 
	C324.487396,539.188354 337.700775,547.892883 351.707001,555.015137 
	C369.347839,563.985718 388.118073,570.305908 407.669708,573.972046 
	C408.475311,574.123169 409.331848,574.002686 410.596436,574.008911 
z"/>
<path fill="#8FC4FD" opacity="1.000000" stroke="none" 
	d="
M429.232208,638.713867 
	C437.465210,643.330139 445.488647,647.537415 453.232452,652.208313 
	C455.490326,653.570251 457.654633,655.980164 458.597839,658.402039 
	C459.767609,661.405701 459.581024,664.832336 455.773438,666.685425 
	C442.902283,672.949646 429.487671,677.662231 415.202240,678.900940 
	C398.650970,680.336121 382.011597,682.047363 365.449768,681.709656 
	C348.493073,681.363770 331.483765,679.351807 314.682495,676.834351 
	C298.236908,674.370117 281.926270,670.756042 265.749695,666.846802 
	C257.219025,664.785339 249.076279,661.081665 240.822968,657.949341 
	C239.593811,657.482849 238.720566,656.078735 236.779312,654.263672 
	C248.284149,653.085022 258.484741,652.222168 268.630707,650.929993 
	C274.400879,650.195068 280.097382,648.832336 285.798920,647.619812 
	C294.330719,645.805298 302.905914,644.133850 311.336639,641.921326 
	C320.207977,639.593140 328.872894,636.483459 337.732971,634.106628 
	C349.997528,630.816467 362.453979,628.924988 375.173340,627.754089 
	C394.377319,625.986206 411.564392,632.143127 429.232208,638.713867 
z"/>
<path fill="#000000" opacity="1.000000" stroke="none" 
	d="
M278.192932,449.958374 
	C270.927307,446.591003 264.003906,443.403198 257.225098,439.932953 
	C247.644989,435.028595 238.070312,430.096069 228.689285,424.826691 
	C222.685608,421.454437 222.792343,417.463654 228.252304,413.220245 
	C237.524200,406.014191 247.967682,406.988953 257.666748,410.610779 
	C267.898132,414.431366 277.453979,420.233582 284.921600,428.634979 
	C287.190552,431.187622 289.144409,434.061859 290.961090,436.964966 
	C293.474823,440.981903 291.815826,444.840515 289.264374,447.904022 
	C286.540649,451.174347 282.703247,452.076965 278.192932,449.958374 
z"/>
</svg>