<svg version="1.1" id="Layer_1" xmlns="http://www.w3.org/2000/svg" xmlns:xlink="http://www.w3.org/1999/xlink" x="0px" y="0px"
	 width="100%" viewBox="0 0 719 719" enable-background="new 0 0 719 719" xml:space="preserve">
<path fill="#000000" opacity="1.000000" stroke="none" 
	d="
M425.000000,720.000000 
	C283.333344,720.000000 142.166672,720.000000 1.000000,720.000000 
	C1.000000,480.333344 1.000000,240.666672 1.000000,1.000000 
	C240.666672,1.000000 480.333344,1.000000 720.000000,1.000000 
	C720.000000,240.666672 720.000000,480.333344 720.000000,720.000000 
	C621.833313,720.000000 523.666687,720.000000 425.000000,720.000000 
M255.002838,701.503662 
	C270.036163,705.013672 284.962219,709.117371 300.134460,711.858154 
	C313.895020,714.343811 327.902283,716.465881 341.839386,716.733032 
	C361.818970,717.116028 381.870148,716.192261 401.819580,714.803345 
	C413.728119,713.974243 425.691010,711.960815 437.288269,709.097656 
	C453.615723,705.066711 470.019012,700.768860 485.669006,694.720093 
	C503.368530,687.879028 520.807922,679.935852 537.361572,670.684692 
	C552.647583,662.141907 566.847290,651.560242 581.096252,641.281616 
	C597.354797,629.553101 611.645325,615.612854 625.020386,600.642334 
	C639.161194,584.814819 652.550415,568.399658 663.189941,550.070984 
	C672.780884,533.548706 682.118286,516.723755 689.678955,499.216766 
	C699.674744,476.071045 706.511108,451.830566 711.294434,426.909912 
	C715.322998,405.922028 717.001465,384.823364 717.799255,363.635040 
	C718.249573,351.674164 717.220093,339.574036 715.864746,327.649445 
	C714.089478,312.030853 711.969666,296.395050 708.853760,280.998199 
	C704.008362,257.054871 696.382141,233.874573 686.137756,211.674652 
	C677.241028,192.395050 667.268311,173.704697 654.935364,156.287155 
	C644.103760,140.989853 632.603333,126.349777 619.564148,112.847343 
	C603.643677,96.361153 586.943909,80.815727 567.695312,68.298096 
	C554.222229,59.536415 540.696045,50.748814 526.578247,43.109982 
	C501.930115,29.773336 475.673615,20.503090 448.456604,13.622046 
	C425.012482,7.694869 401.232269,4.281788 377.225464,3.258965 
	C360.948212,2.565466 344.518402,3.774298 328.246033,5.171229 
	C315.028992,6.305870 301.902313,8.743426 288.810364,11.031338 
	C262.732178,15.588687 237.859802,24.275372 213.895050,35.195667 
	C195.182495,43.722626 177.315338,53.906555 160.305084,65.742249 
	C136.859711,82.055466 115.180496,100.194527 96.711304,121.952415 
	C86.626587,133.832855 77.065445,146.196396 67.858368,158.774094 
	C54.213585,177.414078 43.479458,197.812897 34.593731,219.062881 
	C26.737513,237.850845 20.485491,257.180878 15.694053,277.101349 
	C10.810673,297.404022 7.139937,317.874847 6.326081,338.558685 
	C5.508647,359.333374 6.643304,380.264771 8.236226,401.026733 
	C9.321632,415.173798 11.596685,429.433228 15.255697,443.130615 
	C20.499249,462.759674 26.450085,482.342163 34.051022,501.155914 
	C40.630207,517.440674 49.456974,532.893860 58.139565,548.233887 
	C70.209129,569.557861 85.510712,588.639587 102.208076,606.479736 
	C110.937164,615.806274 120.603203,624.313843 130.310471,632.650513 
	C139.744659,640.752563 149.283203,648.908752 159.648148,655.712341 
	C177.484299,667.420044 195.731049,678.644897 215.558075,686.776245 
	C228.287674,691.996704 241.387054,696.315552 255.002838,701.503662 
z"/>
<path fill="#FEFFFF" opacity="1.000000" stroke="none" 
	d="
M254.661743,701.271118 
	C241.387054,696.315552 228.287674,691.996704 215.558075,686.776245 
	C195.731049,678.644897 177.484299,667.420044 159.648148,655.712341 
	C149.283203,648.908752 139.744659,640.752563 130.310471,632.650513 
	C120.603203,624.313843 110.937164,615.806274 102.208076,606.479736 
	C85.510712,588.639587 70.209129,569.557861 58.139565,548.233887 
	C49.456974,532.893860 40.630207,517.440674 34.051022,501.155914 
	C26.450085,482.342163 20.499249,462.759674 15.255697,443.130615 
	C11.596685,429.433228 9.321632,415.173798 8.236226,401.026733 
	C6.643304,380.264771 5.508647,359.333374 6.326081,338.558685 
	C7.139937,317.874847 10.810673,297.404022 15.694053,277.101349 
	C20.485491,257.180878 26.737513,237.850845 34.593731,219.062881 
	C43.479458,197.812897 54.213585,177.414078 67.858368,158.774094 
	C77.065445,146.196396 86.626587,133.832855 96.711304,121.952415 
	C115.180496,100.194527 136.859711,82.055466 160.305084,65.742249 
	C177.315338,53.906555 195.182495,43.722626 213.895050,35.195667 
	C237.859802,24.275372 262.732178,15.588687 288.810364,11.031338 
	C301.902313,8.743426 315.028992,6.305870 328.246033,5.171229 
	C344.518402,3.774298 360.948212,2.565466 377.225464,3.258965 
	C401.232269,4.281788 425.012482,7.694869 448.456604,13.622046 
	C475.673615,20.503090 501.930115,29.773336 526.578247,43.109982 
	C540.696045,50.748814 554.222229,59.536415 567.695312,68.298096 
	C586.943909,80.815727 603.643677,96.361153 619.564148,112.847343 
	C632.603333,126.349777 644.103760,140.989853 654.935364,156.287155 
	C667.268311,173.704697 677.241028,192.395050 686.137756,211.674652 
	C696.382141,233.874573 704.008362,257.054871 708.853760,280.998199 
	C711.969666,296.395050 714.089478,312.030853 715.864746,327.649445 
	C717.220093,339.574036 718.249573,351.674164 717.799255,363.635040 
	C717.001465,384.823364 715.322998,405.922028 711.294434,426.909912 
	C706.511108,451.830566 699.674744,476.071045 689.678955,499.216766 
	C682.118286,516.723755 672.780884,533.548706 663.189941,550.070984 
	C652.550415,568.399658 639.161194,584.814819 625.020386,600.642334 
	C611.645325,615.612854 597.354797,629.553101 581.096252,641.281616 
	C566.847290,651.560242 552.647583,662.141907 537.361572,670.684692 
	C520.807922,679.935852 503.368530,687.879028 485.669006,694.720093 
	C470.019012,700.768860 453.615723,705.066711 437.288269,709.097656 
	C425.691010,711.960815 413.728119,713.974243 401.819580,714.803345 
	C381.870148,716.192261 361.818970,717.116028 341.839386,716.733032 
	C327.902283,716.465881 313.895020,714.343811 300.134460,711.858154 
	C284.962219,709.117371 270.036163,705.013672 254.661743,701.271118 
M413.385010,575.932617 
	C386.165466,570.453430 360.133789,562.032837 336.298889,547.209534 
	C313.131531,532.801392 289.097168,519.770203 268.422943,501.640045 
	C259.302704,493.642151 250.626160,484.750854 240.386215,478.494202 
	C215.426620,463.243805 187.650055,457.698181 158.557434,458.922150 
	C134.153595,459.948822 111.790802,466.914093 92.500320,482.505402 
	C80.511276,492.195465 78.112854,504.261353 86.314377,517.372253 
	C108.452881,552.762878 134.746140,584.683899 166.526215,611.879883 
	C180.990616,624.257874 196.220413,635.691284 214.182495,642.563110 
	C220.611191,645.022583 227.713211,647.392578 234.420456,647.169861 
	C266.683563,646.098450 297.903625,638.730042 328.802246,629.833557 
	C339.639313,626.713379 350.402069,622.619141 361.484222,621.201477 
	C393.833282,617.063049 423.648102,625.505005 450.815735,642.930786 
	C462.416992,650.372070 474.676788,652.679382 487.903900,651.491638 
	C501.877167,650.236938 514.022522,643.755249 525.721863,636.735352 
	C551.309875,621.381714 572.136597,600.569885 591.352844,578.023438 
	C623.515015,540.287537 646.537598,497.913727 656.406921,448.971069 
	C657.910400,441.515381 658.350037,433.845154 659.281738,426.274170 
	C658.846985,426.183716 658.412231,426.093231 657.977478,426.002777 
	C657.280273,427.459442 656.528076,428.892609 655.894470,430.376434 
	C650.738037,442.452637 646.318359,454.905304 640.335083,466.555481 
	C618.367798,509.328033 584.900940,540.614685 542.290955,562.337280 
	C527.428467,569.914185 511.932648,575.896118 495.375580,577.985291 
	C494.874756,573.215576 497.080872,571.287537 501.743683,569.969604 
	C536.076904,560.265442 566.264099,542.966003 591.474182,517.794861 
	C643.292603,466.056366 665.038757,402.943939 660.270508,330.353760 
	C657.531372,288.654327 644.426270,250.243576 622.171509,214.943665 
	C618.356995,208.893204 614.121521,203.099579 609.909790,197.311493 
	C607.614075,194.156555 604.249207,193.113174 600.603577,194.485291 
	C597.061462,195.818451 596.584595,199.095917 596.708008,202.398315 
	C596.763489,203.881302 597.024658,205.390106 597.428101,206.820755 
	C599.096741,212.737656 600.617310,218.713089 602.657410,224.503113 
	C604.258118,229.046051 604.415039,233.383942 602.115112,237.526520 
	C598.164734,244.641922 594.186707,251.765732 589.754150,258.582916 
	C585.422058,265.245758 581.445618,272.078888 581.263916,280.119232 
	C581.124023,286.308502 582.275208,292.526947 582.863770,298.856018 
	C583.188232,298.772400 582.869202,298.918335 582.547302,298.925110 
	C581.715271,298.942719 580.877747,298.946075 580.049805,298.872620 
	C560.691650,297.155121 546.702271,306.015869 536.306458,321.465240 
	C532.601624,326.971069 529.573303,332.942627 526.382141,338.781403 
	C520.204407,350.084381 511.225830,358.017273 498.949768,362.153717 
	C493.531067,363.979553 492.593781,366.710907 496.326385,370.834015 
	C498.366669,373.087738 500.983551,375.707336 503.726227,376.265259 
	C510.979797,377.740845 518.482117,379.113434 525.814636,378.811249 
	C536.073181,378.388428 545.884460,375.356110 553.509399,367.778137 
	C565.204163,356.155365 591.817200,356.057129 603.608337,367.654724 
	C607.936768,371.912140 609.139221,376.857056 607.718506,382.716949 
	C604.295410,396.836273 597.027527,408.455994 585.526123,417.354370 
	C555.426208,440.642212 508.987213,435.529633 482.810852,405.987762 
	C480.633057,403.529999 478.403717,400.794373 477.274841,397.784119 
	C470.820923,380.573700 470.783356,363.334625 477.733887,346.159698 
	C480.603851,339.067932 483.607849,331.977783 485.726898,324.648682 
	C488.108337,316.411987 488.543304,307.845337 481.636902,301.308472 
	C474.716278,294.758118 466.595459,296.501038 458.650452,299.508636 
	C433.590179,308.995270 412.196808,323.770905 393.857788,343.333374 
	C387.299225,350.329468 379.412964,356.080933 372.132721,362.400482 
	C369.701599,361.971222 365.896515,359.918365 361.977722,358.112305 
	C321.335144,339.380890 278.614685,333.614441 234.313873,337.702698 
	C200.224350,340.848602 167.942368,350.032593 138.096649,366.976471 
	C107.304764,384.457489 82.523888,407.748505 69.254906,441.387878 
	C66.805901,447.596588 65.422546,454.553650 65.185791,461.223480 
	C64.893784,469.449493 71.930656,475.191711 79.289948,473.529144 
	C86.079018,471.995453 92.931778,470.223663 99.319923,467.523773 
	C129.785431,454.648041 160.917084,447.395752 194.162262,454.030670 
	C217.203369,458.629059 239.132584,466.234467 256.987061,481.759491 
	C280.981720,502.623627 306.610382,521.006592 334.073883,536.865295 
	C352.523071,547.518738 371.024017,558.596741 392.607819,561.451477 
	C401.974823,562.690369 408.141266,567.146118 413.157288,574.362732 
	C413.533844,574.904419 413.856354,575.483582 413.385010,575.932617 
M446.036438,648.438110 
	C441.490387,646.005554 437.024078,643.407776 432.384979,641.167908 
	C407.559753,629.182373 381.743866,624.190796 354.490875,630.939514 
	C336.773682,635.326843 319.218536,640.383911 301.454895,644.563232 
	C288.718597,647.559753 275.792633,649.808960 262.883240,651.988831 
	C255.137451,653.296814 247.260895,653.830505 238.109283,654.862732 
	C240.205688,656.323425 241.338867,657.395264 242.683105,657.990417 
	C245.410477,659.197876 248.235397,660.194092 251.048981,661.196228 
	C285.448486,673.448425 321.136719,679.187439 357.418091,680.726196 
	C374.623199,681.455933 391.959473,680.094849 409.188660,678.958496 
	C424.893066,677.922668 439.894714,673.510681 454.186523,666.889404 
	C458.895172,664.707947 459.683228,660.105225 455.882690,656.393982 
	C453.047485,653.625366 449.740692,651.339722 446.036438,648.438110 
z"/>
<path fill="#1851B8" opacity="1.000000" stroke="none" 
	d="
M414.204041,576.045349 
	C413.856354,575.483582 413.533844,574.904419 413.157288,574.362732 
	C408.141266,567.146118 401.974823,562.690369 392.607819,561.451477 
	C371.024017,558.596741 352.523071,547.518738 334.073883,536.865295 
	C306.610382,521.006592 280.981720,502.623627 256.987061,481.759491 
	C239.132584,466.234467 217.203369,458.629059 194.162262,454.030670 
	C160.917084,447.395752 129.785431,454.648041 99.319923,467.523773 
	C92.931778,470.223663 86.079018,471.995453 79.289948,473.529144 
	C71.930656,475.191711 64.893784,469.449493 65.185791,461.223480 
	C65.422546,454.553650 66.805901,447.596588 69.254906,441.387878 
	C82.523888,407.748505 107.304764,384.457489 138.096649,366.976471 
	C167.942368,350.032593 200.224350,340.848602 234.313873,337.702698 
	C278.614685,333.614441 321.335144,339.380890 361.977722,358.112305 
	C365.896515,359.918365 369.701599,361.971222 372.132721,362.400482 
	C379.412964,356.080933 387.299225,350.329468 393.857788,343.333374 
	C412.196808,323.770905 433.590179,308.995270 458.650452,299.508636 
	C466.595459,296.501038 474.716278,294.758118 481.636902,301.308472 
	C488.543304,307.845337 488.108337,316.411987 485.726898,324.648682 
	C483.607849,331.977783 480.603851,339.067932 477.733887,346.159698 
	C470.783356,363.334625 470.820923,380.573700 477.274841,397.784119 
	C478.403717,400.794373 480.633057,403.529999 482.810852,405.987762 
	C508.987213,435.529633 555.426208,440.642212 585.526123,417.354370 
	C597.027527,408.455994 604.295410,396.836273 607.718506,382.716949 
	C609.139221,376.857056 607.936768,371.912140 603.608337,367.654724 
	C591.817200,356.057129 565.204163,356.155365 553.509399,367.778137 
	C545.884460,375.356110 536.073181,378.388428 525.814636,378.811249 
	C518.482117,379.113434 510.979797,377.740845 503.726227,376.265259 
	C500.983551,375.707336 498.366669,373.087738 496.326385,370.834015 
	C492.593781,366.710907 493.531067,363.979553 498.949768,362.153717 
	C511.225830,358.017273 520.204407,350.084381 526.382141,338.781403 
	C529.573303,332.942627 532.601624,326.971069 536.306458,321.465240 
	C546.702271,306.015869 560.691650,297.155121 580.049805,298.872620 
	C580.877747,298.946075 581.715271,298.942719 582.547302,298.925110 
	C582.869202,298.918335 583.188232,298.772400 582.863770,298.856018 
	C582.275208,292.526947 581.124023,286.308502 581.263916,280.119232 
	C581.445618,272.078888 585.422058,265.245758 589.754150,258.582916 
	C594.186707,251.765732 598.164734,244.641922 602.115112,237.526520 
	C604.415039,233.383942 604.258118,229.046051 602.657410,224.503113 
	C600.617310,218.713089 599.096741,212.737656 597.428101,206.820755 
	C597.024658,205.390106 596.763489,203.881302 596.708008,202.398315 
	C596.584595,199.095917 597.061462,195.818451 600.603577,194.485291 
	C604.249207,193.113174 607.614075,194.156555 609.909790,197.311493 
	C614.121521,203.099579 618.356995,208.893204 622.171509,214.943665 
	C644.426270,250.243576 657.531372,288.654327 660.270508,330.353760 
	C665.038757,402.943939 643.292603,466.056366 591.474182,517.794861 
	C566.264099,542.966003 536.076904,560.265442 501.743683,569.969604 
	C497.080872,571.287537 494.874756,573.215576 495.274902,578.826721 
	C495.720123,595.636414 490.968018,610.083740 482.352600,623.327515 
	C474.482880,635.425049 462.264801,637.148926 452.394470,626.581299 
	C445.112488,618.784851 439.407227,609.518921 432.967407,600.931763 
	C426.734253,592.620300 420.460144,584.339600 414.204041,576.045349 
M223.064743,419.494293 
	C226.136765,422.563446 228.764023,426.370850 232.374573,428.546204 
	C239.612350,432.907104 247.318161,436.521271 254.959946,440.173401 
	C263.163788,444.094116 271.417816,447.948334 279.847290,451.341187 
	C283.714447,452.897675 287.938629,452.346100 290.610352,448.502197 
	C293.326416,444.594482 294.514557,439.994232 291.737183,435.853668 
	C288.534393,431.078949 285.146729,426.008942 280.675507,422.588501 
	C270.207245,414.580292 258.753143,408.380402 245.085236,407.214233 
	C236.457748,406.478149 226.358749,411.394440 223.064743,419.494293 
z"/>
<path fill="#2990FF" opacity="1.000000" stroke="none" 
	d="
M413.794525,575.989014 
	C420.460144,584.339600 426.734253,592.620300 432.967407,600.931763 
	C439.407227,609.518921 445.112488,618.784851 452.394470,626.581299 
	C462.264801,637.148926 474.482880,635.425049 482.352600,623.327515 
	C490.968018,610.083740 495.720123,595.636414 495.275818,579.202393 
	C511.932648,575.896118 527.428467,569.914185 542.290955,562.337280 
	C584.900940,540.614685 618.367798,509.328033 640.335083,466.555481 
	C646.318359,454.905304 650.738037,442.452637 655.894470,430.376434 
	C656.528076,428.892609 657.280273,427.459442 657.977478,426.002777 
	C658.412231,426.093231 658.846985,426.183716 659.281738,426.274170 
	C658.350037,433.845154 657.910400,441.515381 656.406921,448.971069 
	C646.537598,497.913727 623.515015,540.287537 591.352844,578.023438 
	C572.136597,600.569885 551.309875,621.381714 525.721863,636.735352 
	C514.022522,643.755249 501.877167,650.236938 487.903900,651.491638 
	C474.676788,652.679382 462.416992,650.372070 450.815735,642.930786 
	C423.648102,625.505005 393.833282,617.063049 361.484222,621.201477 
	C350.402069,622.619141 339.639313,626.713379 328.802246,629.833557 
	C297.903625,638.730042 266.683563,646.098450 234.420456,647.169861 
	C227.713211,647.392578 220.611191,645.022583 214.182495,642.563110 
	C196.220413,635.691284 180.990616,624.257874 166.526215,611.879883 
	C134.746140,584.683899 108.452881,552.762878 86.314377,517.372253 
	C78.112854,504.261353 80.511276,492.195465 92.500320,482.505402 
	C111.790802,466.914093 134.153595,459.948822 158.557434,458.922150 
	C187.650055,457.698181 215.426620,463.243805 240.386215,478.494202 
	C250.626160,484.750854 259.302704,493.642151 268.422943,501.640045 
	C289.097168,519.770203 313.131531,532.801392 336.298889,547.209534 
	C360.133789,562.032837 386.165466,570.453430 413.794525,575.989014 
z"/>
<path fill="#90C4FD" opacity="1.000000" stroke="none" 
	d="
M446.340179,648.638550 
	C449.740692,651.339722 453.047485,653.625366 455.882690,656.393982 
	C459.683228,660.105225 458.895172,664.707947 454.186523,666.889404 
	C439.894714,673.510681 424.893066,677.922668 409.188660,678.958496 
	C391.959473,680.094849 374.623199,681.455933 357.418091,680.726196 
	C321.136719,679.187439 285.448486,673.448425 251.048981,661.196228 
	C248.235397,660.194092 245.410477,659.197876 242.683105,657.990417 
	C241.338867,657.395264 240.205688,656.323425 238.109283,654.862732 
	C247.260895,653.830505 255.137451,653.296814 262.883240,651.988831 
	C275.792633,649.808960 288.718597,647.559753 301.454895,644.563232 
	C319.218536,640.383911 336.773682,635.326843 354.490875,630.939514 
	C381.743866,624.190796 407.559753,629.182373 432.384979,641.167908 
	C437.024078,643.407776 441.490387,646.005554 446.340179,648.638550 
z"/>
<path fill="#FCFCFE" opacity="1.000000" stroke="none" 
	d="
M223.178192,419.138550 
	C226.358749,411.394440 236.457748,406.478149 245.085236,407.214233 
	C258.753143,408.380402 270.207245,414.580292 280.675507,422.588501 
	C285.146729,426.008942 288.534393,431.078949 291.737183,435.853668 
	C294.514557,439.994232 293.326416,444.594482 290.610352,448.502197 
	C287.938629,452.346100 283.714447,452.897675 279.847290,451.341187 
	C271.417816,447.948334 263.163788,444.094116 254.959946,440.173401 
	C247.318161,436.521271 239.612350,432.907104 232.374573,428.546204 
	C228.764023,426.370850 226.136765,422.563446 223.178192,419.138550 
z"/>
</svg>